<?xml version="1.0" encoding="utf-8"?>
<svg version="1.1" id="layer" xmlns="http://www.w3.org/2000/svg" xmlns:xlink="http://www.w3.org/1999/xlink" x="0px" y="0px"
	 width="720px" height="720px" viewBox="0 0 720 720" xml:space="preserve">
<path d="M392.364,352.926c6.539-0.925,12.333-1.91,18.165-2.539c16.069-1.732,32.024-1.485,47.683,3.187
	c10.945,3.265,20.966,8.244,29.631,15.764c1.105,0.959,2.155,1.406,3.698,1.291c21.875-1.63,42.93,2.093,63.347,9.869
	c1.603,0.611,3.212,1.207,5.101,1.917c-0.095-5.298,1.382-9.793,3.263-14.197c2.273-5.323,6.107-9.048,11.314-11.519
	c9.772-4.637,19.935-5.601,30.44-3.4c8.703,1.823,17.39,3.722,26.074,5.634c26.164,5.761,50.166-0.333,72.91-13.285
	c4.155-2.366,7.035-1.425,9.082,3.081c-10.631,10.632-21.126,21.36-33.098,30.511c-20.871,15.954-44.634,22.194-70.526,20.889
	c-6.332-0.319-12.596-1.99-18.891-3.042c-0.689-0.115-1.376-0.25-2.674-0.487c0.827,0.754,1.142,1.145,1.545,1.393
	c12.05,7.429,24.011,15.011,36.201,22.205c8.759,5.169,18.005,9.387,28.086,11.395c7.917,1.577,15.86,2.409,23.853,0.457
	c4.19-1.023,8.043-2.775,11.556-5.267c3.831-2.717,6.374-6.359,7.504-10.913c1.615-6.507-2.732-11.61-9.375-11.074
	c-0.6,0.049-1.428,0.098-1.732,0.48c-0.966,1.211-2.174,1.487-3.28,0.678c-1.359-0.995-6.033-4.228-3.552-6.202
	c0.609-0.484,1.417-0.624,2.19-0.709c9.781-1.078,18.913,4.097,23.833,12.439c2.522,4.277,2.755,8.747,0.896,13.356
	c-1.798,4.456-4.776,7.881-8.81,10.455c-7.926,5.058-16.658,6.575-25.894,6.107c-12.852-0.65-24.998-4.078-36.36-9.912
	c-9.461-4.857-18.653-10.258-27.807-15.684c-8.188-4.854-16.085-10.199-24.245-15.104c-17.343-10.427-35.811-17.952-55.941-20.97
	c-8.939-1.34-17.914-2.181-26.966-1.37c-0.833,0.075-1.658,0.242-2.81,0.416c0.572,1.133,0.974,2.01,1.443,2.848
	c4.434,7.926,5.527,16.293,3.197,25.06c-2.203,8.289-6.269,15.554-12.463,21.526c-12.723,12.266-31.886,13.063-45.617,1.965
	c-10.19-8.236-12.27-20.838-5.267-31.935c2.708-4.291,6.23-7.835,10.151-11.004c8.924-7.214,19.013-12.031,30.18-14.621
	c0.725-0.168,1.439-0.391,2.151-0.612c0.094-0.029,0.144-0.197,0.523-0.751c-1.962-1.374-3.854-2.932-5.952-4.13
	c-8.723-4.98-18.197-7.693-28.121-8.873c-20.611-2.452-40.75,0.417-60.639,5.656c-30.067,7.919-58.72,19.394-85.962,34.396
	c-16.35,9.004-32.537,18.327-49.755,25.652c-0.319,0.136-0.566,0.442-1.182,0.939c1.8,0.355,3.296,0.708,4.811,0.937
	c6.173,0.936,11.875,3.153,17.042,6.594c5.629,3.749,11.115,7.714,16.658,11.592c12.824,8.97,27.187,13.126,42.709,13.442
	c4.627,0.094,9.263-0.39,13.897-0.519c3.207-0.089,3.991,0.943,3.3,4.108c-0.518,2.371-1.811,4.083-4.208,4.852
	c-6.079,1.948-12.095,4.122-18.242,5.824c-10.136,2.806-20.262,5.774-30.559,7.839c-16.456,3.3-32.706,1.592-48.457-4.118
	c-7.028-2.548-13.222-6.565-18.242-12.232c-6.808-7.686-8.621-16.452-5.75-26.251c0.208-0.709,0.393-1.424,0.757-2.752
	c-1.623,0.389-2.893,0.677-4.155,0.998c-8.54,2.175-17.159,3.574-26.026,2.946c-13.737-0.973-26.174-5.396-37.157-13.772
	c-0.497-0.379-1.003-0.749-1.511-1.113c-0.098-0.07-0.226-0.097-0.618-0.259c-1.152,0.531-2.508,1.125-3.838,1.774
	c-12.793,6.24-26.313,8.892-40.484,7.847c-9.274-0.684-18.405-2.472-27.203-5.478c-17.822-6.088-34.27-14.784-48.669-27.034
	c-8.722-7.42-16.212-16.034-22.993-25.239c-1.77-2.403-3.253-5.066-4.525-7.771c-1.172-2.493-0.683-4.488,0.706-5.013
	c1.525-0.576,4.809,0.892,5.225,2.796c1.561,7.138,6.846,11.784,11.103,17.115c1.482,1.856,3.198,3.527,4.811,5.279
	c17.667,19.188,39.589,30.711,64.944,36.045c18.127,3.814,35.363,1.028,51.882-7.028c0.551-0.269,1.066-0.609,1.883-1.079
	c-0.807-1.347-1.55-2.59-2.294-3.833c-7.06-11.796-6.483-24.067,1.618-34.4c6.347-8.096,15.293-10.083,24.461-5.434
	c9.544,4.84,13.503,13.519,10.59,23.436c-1.732,5.899-4.777,11.047-9.492,15.055c-3.81,3.239-7.773,6.298-12.078,9.767
	c1.754,1.263,3.338,2.63,5.12,3.65c9.779,5.601,20.387,7.462,31.513,6.571c13.774-1.103,26.695-5.51,39.437-10.51
	c14.258-5.595,27.848-12.593,41.231-19.993c16.56-9.157,33.116-18.313,50.72-25.38c0.338-0.136,0.64-0.365,1.257-0.724
	c-0.587-0.542-1.011-1.096-1.568-1.423c-10.086-5.914-14.34-14.946-10.09-29.606c1.591-5.487,4.787-10.174,8.482-14.502
	c9.912-11.612,22.307-19.695,36.393-25.238c17.118-6.736,34.911-10.728,53.172-12.871c7.576-0.889,15.135-2.152,22.594-3.748
	c6.759-1.446,13.147-4.149,19.015-7.87c9.283-5.887,13.097-15.194,10.453-25.16c-1.95-7.353-7.912-11.186-15.402-9.605
	c-9.14,1.929-13.549,9.274-14.463,17.129c-0.22,1.889,0.308,3.387,2.611,3.835c1.733,0.337,3.285,1.241,3.892,3.731
	c-0.142,0.903-1.894,0.5-2.726,0.352c-7.866-1.4-12.056-8.128-9.404-15.6c1.152-3.244,2.72-6.585,4.939-9.157
	c4.937-5.721,11.5-7.22,18.802-5.545c4.997,1.146,9.381,3.519,13.137,6.971c8.265,7.594,9.324,22.377,2.374,32.107
	c-2.749,3.848-6.21,6.988-10.415,9.03c-5.392,2.618-10.898,5.083-16.542,7.086c-13.107,4.652-23.823,12.133-30.679,24.522
	c-1.092,1.973-2.198,3.941-3.193,5.962C405.102,333.817,400.333,343.892,392.364,352.926z M329.249,367.285
	c0.343-0.395,0.573-0.552,0.647-0.764c0.289-0.827,0.536-1.669,0.785-2.509c2.556-8.637,7.07-16.016,14.146-21.683
	c4.789-3.835,9.65-7.582,14.545-11.281c1.59-1.202,3.371-2.159,5.1-3.168c1.525-0.889,3.179-0.878,4.671-0.05
	c0.81,0.449,1.79,1.301,1.9,2.082c0.092,0.656-0.832,1.65-1.539,2.189c-5.869,4.48-11.929,8.72-17.643,13.385
	c-3.174,2.591-6.018,5.677-8.613,8.863c-2.988,3.67-4.884,7.996-6.346,12.931c1.57-0.158,2.677-0.217,3.766-0.387
	c11.806-1.842,22.593-6.486,32.907-12.275c7.552-4.238,13.775-10.017,18.205-17.526c3.562-6.037,6.99-12.156,10.379-18.293
	c2.153-3.899,4.639-7.609,7.439-11.072c2.593-3.206,6.357-5.993,8.406-9.514c-20.045,3.24-39.08,7.857-56.862,16.702
	c-10.081,5.015-19.029,11.571-26.384,20.189c-3.538,4.146-6.355,8.702-7.963,13.925c-1.458,4.739-2.101,9.559-0.479,14.401
	C326.815,364.921,327.216,366.595,329.249,367.285z M572.026,384.645c0.107,0.31,0.215,0.62,0.322,0.93
	c21.189,9.081,42.937,9.422,65.079,4.165c18.755-4.453,34.182-14.695,48.284-27.357c-0.705-0.126-1.29,0.007-1.857,0.193
	c-18.042,5.917-36.206,5.622-54.52,1.315c-7.431-1.748-14.945-3.19-22.471-4.478c-9.558-1.637-18.717-0.02-27.419,4.196
	c-5.862,2.84-9.411,7.513-11.015,13.795c4.236-1.644,8.174-3.575,12.329-4.707c10.17-2.77,20.495-3.287,30.884-1.058
	c4.653,0.999,9.347,1.814,13.984,2.878c2.538,0.583,4.974,1.537,5.54,5.286c-1.608,0-2.926,0.16-4.192-0.028
	c-4.831-0.721-9.624-1.73-14.47-2.31c-11.194-1.338-22.293-1.11-32.93,3.217C576.955,381.748,574.537,383.311,572.026,384.645z
	 M227.246,438.487c-0.347-0.133-0.624,0.063-0.682,0.957c-0.405,6.269,2.56,11.402,6.715,15.865
	c5.774,6.203,12.93,10.25,20.967,12.695c14.846,4.517,29.954,5.903,45.273,2.935c6.224-1.206,12.353-2.903,18.944-4.476
	c-0.73-0.487-0.917-0.678-1.141-0.749c-0.595-0.19-1.199-0.378-1.814-0.481c-14.05-2.342-26.455-8.096-37.239-17.479
	c-3.672-3.194-7.676-6.063-11.772-8.701c-4.803-3.094-10.177-5.278-15.829-6.182c-2.846-0.455-5.944-0.751-8.821-0.416
	c-2.723,0.317-5.157,1.157-7.93,0.928c0.104,0.44,0.329,0.971,0.662,1.312c7.584,7.786,16.377,13.525,27.122,15.928
	c1.831,0.409,3.703,0.655,5.51,1.145c0.757,0.205,1.726,0.695,2.026,1.327c0.959,2.024-0.921,5.11-3.162,5.377
	c-0.862,0.103-1.755,0.05-2.624-0.036c-14.105-1.386-25.979-6.98-34.729-18.453C228.375,439.529,227.74,438.676,227.246,438.487z
	 M488.171,380.229c-0.462-0.084-0.707-0.169-0.95-0.164c-0.373,0.009-0.752,0.047-1.116,0.129
	c-13.134,2.952-24.64,8.973-34.062,18.624c-2.404,2.462-4.435,5.454-6.005,8.526c-2.482,4.856-2.766,10.091-0.878,15.293
	c1.233,3.399,3.567,5.542,7.222,6.395c7.563,1.765,14.417,0.156,20.68-4.141c10.167-6.976,15.793-16.886,17.75-28.873
	C491.709,390.519,491.043,385.079,488.171,380.229z M153.449,411.616c3.792-3.19,7.332-5.949,10.615-8.985
	c3.961-3.663,6.512-8.323,7.523-13.57c0.551-2.859,0.409-5.974-0.053-8.872c-0.494-3.098-1.833-3.801-5.049-3.787
	c-3.485,0.015-6.328,1.557-8.552,4.073c-5.343,6.045-8.278,13.053-7.747,21.245C150.395,404.97,151.247,408.08,153.449,411.616z"/>
</svg>
