<?xml version="1.0" encoding="UTF-8" standalone="no"?>
<svg
   version="1.1"
   width="2000"
   height="432"
   viewBox="0 0 2000 432"
   id="svg3"
   sodipodi:docname="logo.svg"
   inkscape:version="1.3 (0e150ed6c4, 2023-07-21)"
   xmlns:inkscape="http://www.inkscape.org/namespaces/inkscape"
   xmlns:sodipodi="http://sodipodi.sourceforge.net/DTD/sodipodi-0.dtd"
   xmlns="http://www.w3.org/2000/svg"
   xmlns:svg="http://www.w3.org/2000/svg">
  <defs
     id="defs3" />
  <sodipodi:namedview
     id="namedview3"
     pagecolor="#ffffff"
     bordercolor="#666666"
     borderopacity="1.0"
     inkscape:showpageshadow="2"
     inkscape:pageopacity="0.0"
     inkscape:pagecheckerboard="0"
     inkscape:deskcolor="#d1d1d1"
     inkscape:zoom="0.763"
     inkscape:cx="144.82307"
     inkscape:cy="76.671035"
     inkscape:window-width="1920"
     inkscape:window-height="991"
     inkscape:window-x="-9"
     inkscape:window-y="-9"
     inkscape:window-maximized="1"
     inkscape:current-layer="svg2" />
  <svg
     xml:space="preserve"
     width="2000"
     height="432"
     data-version="2"
     data-id="lg_N2IUKquhm6cAzjsUMW"
     viewBox="0 0 575 124"
     x="0"
     y="0"
     version="1.1"
     id="svg2">&#10;    &#10;    <text
   xml:space="preserve"
   fill="#EFF0EE"
   stroke="#FF2AEA"
   stroke-width="0"
   font-family="Aref Ruqaa Ink"
   font-size="50"
   font-weight="400"
   style="white-space:pre"
   transform="matrix(1 0 0 1 364 66.263)"
   id="text2"><tspan
     x="-205.5"
     y="-8.306"
     id="tspan1">PEMBROKESHIRE</tspan><tspan
     x="-205.5"
     y="39.719"
     id="tspan2">WOVEN COFFINS</tspan></text><path
   fill="#c4c8ba"
   fill-rule="evenodd"
   d="M 235.87545,4.7116437 C 220.51197,6.489035 211.20762,13.730774 203.1798,30.1586 c -1.4087,2.886957 -2.82783,5.773914 -4.25739,8.646957 -0.38957,0.761739 -6.16348,3.728696 -12.83479,6.598261 -6.66782,2.873043 -13.92695,6.406957 -16.12521,7.857391 -11.68696,7.704348 -11.63827,5.944348 0.18086,-6.692174 6.48696,-6.932174 10.48696,-12.441739 14.24696,-19.603478 6.19131,-11.808696 6.46609,-12.653913 4.12174,-12.653913 -3.00174,0 -18.9113,8.796522 -22.62261,12.507826 -4.12174,4.125217 -5.84348,10.699131 -5.84348,22.354783 0,8.511304 -0.60869,9.634782 -5.91652,10.873043 -5.67304,1.321739 -11.78087,5.533913 -22.86956,15.770435 -12.43479,11.478261 -18.69913,18.845218 -28.52522,33.537389 -3.843477,5.74957 -7.210437,10.05914 -7.485217,9.57914 -0.27826,-0.48 -0.82087,-2.64696 -1.21391,-4.82087 -0.62957,-3.50609 -0.10435,-4.87653 4.69565,-12.22957 5.655647,-8.664349 8.215647,-15.450436 9.154777,-24.26435 l 1.13044,-10.626087 c 0.31652,-2.970434 0.13217,-5.373913 -0.41392,-5.373913 -1.54782,0 -11.773907,12.956522 -14.062597,17.822609 -3.47826,7.391305 -4.48696,15.930435 -3.3287,28.111311 0.57739,6.04173 1.32174,12.08695 1.65565,13.43304 1.06783,4.31652 -2.71304,5.6 -18.29217,6.22609 -16.31305,0.65391 -18.92174,1.65565 -30.64,11.73913 -4.03131,3.4713 -8.21565,6.80695 -9.30087,7.41217 -3.61044,2.01739 -0.31305,2.87304 12.58087,3.25913 15.69391,0.46609 19.03652,-0.83826 30.44174,-11.89217 7.69391,-7.45739 11.17565,-10.07305 12.13217,-9.11305 0.28174,0.27826 -1.96869,4.87305 -5.00174,10.2087 -3.02956,5.33217 -7.63826,14.90783 -10.23304,21.28 -3.19304,7.83652 -5.52,12.03478 -7.18957,12.97739 -1.35652,0.76522 -6.57391,2.65739 -11.60348,4.20174 -15.96521,4.90435 -17.70087,6.44174 -30.40695,26.88696 -1.50261,2.41739 -3.53044,5.19304 -4.50783,6.17043 -3.75652,3.75652 -0.30956,3.81913 9.87479,0.18087 17.14434,-6.12869 25.70434,-13.45043 33.45043,-28.61565 1.58261,-3.10261 3.56174,-5.85739 4.39304,-6.1287 1.12696,-0.36521 1.29044,0.0313 0.64348,1.53739 -1.76348,4.10087 -3.68696,17.3287 -3.81565,26.21914 l -0.1287,9.13739 -5.55826,4.62608 c -3.38399,2.79852 -6.84623,5.50105 -10.38261,8.10435 -8.75826,6.32696 -11.09217,11.49218 -13.01565,28.83131 -1.85043,16.71304 -1.79826,16.76521 7.62783,7.32521 10.1113,-10.12521 15.36,-19.97913 18.1913,-34.16347 1.09565,-5.49914 2.22261,-10.22957 2.50435,-10.50783 0.27826,-0.27826 0.83478,2.76869 1.2313,6.77565 1.03305,10.32348 5.86087,35.30435 8.07305,41.77391 1.77739,5.18957 1.77391,5.72174 -0.0417,11.07131 -1.05392,3.09217 -3.31826,7.40869 -5.03652,9.59652 -6.3687,8.10435 -9.47826,18.60174 -8.26087,27.86783 1.29739,9.85043 6.20174,28.33739 7.41565,27.94782 1.76348,-0.56347 7.55826,-15.61391 10.98087,-28.52869 l 3.00174,-11.3287 -2.30261,-10.82782 c -1.26957,-5.95479 -2.63304,-11.91653 -3.02957,-13.25218 -0.44869,-1.49565 -0.26434,-2.41739 0.47653,-2.41739 0.66087,0 1.2,0.66435 1.2,1.47478 0,2.46957 9.24173,22.93218 13.89217,30.76174 2.40696,4.05218 6.10087,9.62783 8.208697,12.39305 l 3.83652,5.01913 -2.21913,6.56347 c -2.671307,7.91653 -2.831307,14.74087 -0.4487,19.34609 2.88696,5.58261 11.38087,17.98261 12.32,17.98261 1.40522,0 2.58087,-7.45391 2.54609,-16.1287 -0.0348,-8.77217 -1.09913,-11.58608 -7.60696,-20.1113 -6.1913,-8.11478 -3.06782,-6.64348 5.19304,2.4487 4.26088,4.68869 9.94088,10.62956 12.62261,13.20347 7.53044,7.23479 25.64522,20.47305 32.98435,24.11131 5.80522,2.87652 6.67826,3.72174 7.20348,6.94261 0.73044,4.50435 9.66261,20.64348 13.72174,24.79652 2.52174,2.57391 25.12,15.26609 27.18957,15.26609 1.14782,0 -0.56696,-5.68 -2.92174,-9.67653 -5.94783,-10.09739 -15.65218,-18.02434 -27.61044,-22.57043 -4.42782,-1.68348 -8.59826,-5.1687 -8.59826,-7.18261 0,-2.06956 0.97044,-1.84348 10.34783,2.43478 11.88869,5.41913 31.33565,12.45566 35.26608,12.76522 1.81566,0.13913 6.4487,0.56696 10.29218,0.94609 8.12869,0.8 28.14259,2.06956 32.69909,2.06956 1.7218,0 3.7044,-0.78261 4.407,-1.73913 0.7513,-1.02956 6.0383,-2.86956 12.873,-4.48695 6.3827,-1.50609 15.2,-4.13913 19.6,-5.84348 6.6192,-2.57391 7.8748,-2.79652 7.287,-1.30783 -0.3896,0.99131 -0.9739,5.2 -1.2939,9.35652 -0.5218,6.72 -0.2783,8.15653 2.2191,12.90435 1.5444,2.93913 6.1496,8.93913 10.2331,13.33913 l 7.4226,8 0.7826,-13.6 c 0.4313,-7.48174 0.4869,-14.79652 0.1217,-16.25043 -0.9043,-3.60348 -5.5443,-8.92174 -10.5217,-12.06261 -2.2644,-1.43304 -4.1009,-2.95652 -4.0765,-3.39478 0.024,-0.43826 6.3478,-3.92 14.0487,-7.74261 12.1182,-6.01392 32.0034,-19.28696 34.5391,-23.05739 1.4017,-2.08 0.873,0.45217 -0.7444,3.5826 -0.8661,1.66957 -3.6144,2.51413 -4.877,2.84805 -1.2696,0.33043 -4.2953,1.09565 -3.9232,1.70434 0.3757,0.60174 4.5741,1.69457 5.2976,1.46501 0.72,-0.22957 5.6487,-1.70783 10.9496,-3.28348 12.0452,-3.57565 24.8243,-9.93044 29.4504,-14.64348 5.367,-5.47131 15.3252,-22.64348 13.9374,-24.03478 -0.6782,-0.67826 -19.7913,2.12174 -22.9252,3.35304 -1.6696,0.66087 -1.3565,-0.10435 1.3774,-3.39826 16.6887,-20.07304 30.2156,-41.11304 33.8435,-52.62609 l 2.3652,-7.52696 0.7756,11.82609 c 0.9287,14.15652 1.9618,18.03826 7.4887,28.11478 3.9305,7.15827 12.014,17.57914 13.6418,17.58261 1.1548,0 0.2365,-29.13391 -1.0783,-34.18087 -0.9426,-3.6313 -2.6817,-5.91304 -8.1913,-10.74782 -3.8435,-3.37739 -8.1252,-7.93739 -9.513,-10.13218 -2.4766,-3.92695 -2.4905,-4.10434 -0.8279,-10.58782 1.4052,-5.49565 1.5966,-11.46435 1.1409,-35.79131 -0.2991,-16.05217 -0.8835,-31.06435 -1.2974,-33.35652 -0.5913,-3.28348 -0.4383,-4.06261 0.7305,-3.67652 1.7739,0.5913 2.4417,2.76522 4.7026,15.36696 1.0087,5.63478 2.8382,11.56521 4.3791,14.20173 2.3374,4 23.6035,22.89044 25.767,22.89044 1.4365,0 -0.3757,-10.1287 -3.3705,-18.84522 -4.5565,-13.27304 -8.8487,-19.03652 -19.2522,-25.84348 -2.9565,-1.93739 -6.7478,-5.00869 -8.4243,-6.8313 -1.6765,-1.81913 -3.6522,-3.3113 -4.3826,-3.3113 -0.8,0 -1.8679,-2.88696 -2.6609,-7.18261 -0.7269,-3.95131 -2.6956,-11.45044 -4.3722,-16.66087 -1.6765,-5.21739 -2.7756,-9.48522 -2.4382,-9.48522 0.3339,0 3.8956,3.56869 7.9165,7.93043 8.7061,9.45044 15.8922,14.29566 24.9113,16.81044 3.6591,1.01913 7.4991,2.21217 8.5322,2.64696 3.4539,1.46086 2.073,-2.27827 -3.6418,-9.85044 -12.1182,-16.06261 -16.6191,-19.0713 -26.7374,-17.87478 -7.4504,0.88348 -12.1217,-2.14261 -14,-9.07131 -2.1391,-7.88521 -5.513,-13.88869 -14.0452,-24.99478 -17.0434,-22.191306 -34.9287,-37.680002 -62.1739,-53.857393 -11.5617,-6.862609 -8.3687,-6.991305 13.8922,-0.573913 12.9113,3.721739 23.6,6.055652 27.7287,6.052174 3.1791,0 17.1965,-2.483479 21.9965,-3.895653 3.4261,-1.008695 1.9791,-2.306087 -8.0626,-7.23826 -21.0296,-10.326957 -29.287,-11.422609 -44.6226,-5.923479 -12.5426,4.50087 -23.0783,5.648696 -27.5896,3.001739 -2.7269,-1.6 -21.6695,-8.191304 -39.3322,-13.693913 -3.0156,-0.93913 -1.4121,-1.053913 8.0627,-0.584348 13.7043,0.685218 18.7269,-0.723478 30.3026,-8.486956 6.8869,-4.626087 7.6417,-6.32 2.6852,-6.052174 -1.5861,0.08348 -7.0713,-0.215652 -12.1878,-0.667826 -5.1131,-0.452174 -10.974,-0.504348 -13.0192,-0.121739 -2.1043,0.393043 -7.7565,3.707826 -13.0226,7.634782 -8.2052,6.118261 -9.7148,6.859131 -12.7826,6.278261 -1.913,-0.361739 -3.9652,-1.008695 -4.5565,-1.436522 -1.9339,-1.401739 -13.2731,-2.006956 -19.6035,-1.043478 -3.4087,0.514783 -10.54956,1.68 -15.87477,2.587826 -12,2.045218 -15.36348,2.041739 -9.77392,-0.0035 6.02783,-2.208696 10.35826,-5.822609 19.47826,-16.253913 7.43303,-8.5043481 9.28343,-11.3043481 7.23133,-10.942609 -0.4452,0.076522 -4.1809,0.532174 -8.30263,1.0086957 m -8.29565,4.1426087 c -7.39479,2.8904346 -12.21913,6.1495656 -15.73566,10.6226086 -2.99826,3.815652 -6.64347,10.132174 -6.64347,11.513044 0,1.113043 5.47478,-3.165218 13.98956,-10.932174 4.43826,-4.048696 9.76,-8.688696 11.82609,-10.306087 4.36174,-3.422609 3.55826,-3.6313046 -3.43652,-0.8973916 m 4.39652,3.5026086 c -5.65218,4.090457 -20.71304,17.057414 -21.21044,18.260892 -0.99478,2.410435 12.89044,-5.335652 17.33218,-9.669565 4.31304,-4.208696 10.12869,-12.0139136 8.94609,-12.0139136 -0.18783,0 -2.46957,1.5408696 -5.06783,3.4226086 m 56.81736,8.64 c -2.2156,1.286957 -4.0313,2.671305 -4.0313,3.085218 0,0.413913 1.8157,0.354782 4.0348,-0.132174 4.0162,-0.810552 8.0483,-1.539976 12.0939,-2.187826 5.9131,-0.96 7.4887,-1.533913 5.9131,-2.156522 -4.4626,-1.756522 -13.8261,-1.033044 -18.0105,1.391304 m -112.68519,1.286957 c -5.41565,3.165217 -10.22956,7.252174 -11.52,9.763478 -1.2313,2.4 -2.92869,12.365218 -2.10782,12.365218 0.28869,0 3.07826,-3.749566 6.19826,-8.333914 3.12,-4.580869 7.13739,-9.895652 8.93217,-11.808695 4.01044,-4.281739 3.52,-4.932174 -1.50261,-1.989565 m 3.66261,3.046956 c -3.82609,4.083478 -12.63304,16.615652 -13.62087,19.377392 -1.90609,5.356521 7.81218,-4.184348 12.57739,-12.347827 2.56696,-4.4 5.25566,-10.521739 4.61913,-10.521739 -0.16347,0 -1.77391,1.572174 -3.57565,3.492174 m 118.72348,-0.88 c -6.9356,1.297391 -12.9043,2.650435 -13.2626,3.012174 -0.3583,0.358261 0.4278,1.227826 1.7461,1.933913 3.593,1.923478 11.8956,0.695652 18.7443,-2.765217 5.5026,-2.782609 8.4592,-4.991305 6.2505,-4.664348 -0.4766,0.06956 -6.5426,1.186087 -13.4783,2.483478 m -33.8678,8.883478 c 1.0435,0.274783 2.4974,0.253913 3.2243,-0.03826 0.7305,-0.295653 -0.1287,-0.52174 -1.9026,-0.497392 -1.7739,0.02087 -2.3687,0.26087 -1.3217,0.535652 m -35.23481,1.071305 c -8.92174,1.161739 -20.18087,4.156522 -27.41217,7.290435 -5.07826,2.201739 -10.16348,4.382608 -15.25566,6.546087 -3.95478,1.673043 -6.94956,3.433043 -6.65739,3.909565 1.0087,1.624348 9.73913,0.869565 16.09739,-1.394783 8.62609,-3.071304 16.85566,-3.050435 23.01566,0.06261 4.8313,2.441739 26.11128,23.408696 25.22088,24.848696 -0.6609,1.064348 -9.31132,0.04869 -19.56871,-2.299131 -10.15652,-2.330434 -17.22783,-5.624348 -27.13391,-12.650435 -6.06609,-4.302608 -7.93044,-5.043478 -14.4,-5.735652 -9.26609,-0.987826 -10.43826,-0.521739 -29.47131,11.721739 -10.97739,7.064348 -17.32869,12.104348 -25.34608,20.12174 -5.88522,5.881739 -10.14957,10.88 -9.47826,11.102609 0.6713,0.222608 4.49739,-0.918261 8.50086,-2.539131 9.44696,-3.826087 21.6,-4.64 31.32522,-2.104348 8.84522,2.306087 18.42087,5.895652 18.42087,6.90783 0,1.62087 -20.16348,9.62435 -27.41565,10.88 -9.73217,1.68695 -18.65391,0.18435 -23.89565,-4.02435 l -6.18435,-4.97391 c -1.37391,-1.10609 -3.07131,-1.65565 -3.77391,-1.22087 -2.47653,1.53044 -23.182607,30.18087 -26.365217,36.47652 -1.76696,3.49913 -4.03131,7.22087 -5.03305,8.26783 -1.73913,1.81913 -6.24347,14.60869 -6.24347,17.71826 0,0.81739 -1.52696,6.21217 -3.39131,11.98261 -1.98608,6.13913 -3.70087,14.20173 -4.13217,19.42608 l -0.73739,8.93218 4.93913,4.89739 c 2.71304,2.69565 7.46782,6.33739 10.56348,8.09739 10.19826,5.79478 19.036517,18.0313 21.676517,30.01043 0.57043,2.59479 1.37391,8.22261 1.78782,12.51131 0.64696,6.71304 0.51479,7.7913 -0.95304,7.7913 -0.93913,0 -7.02609,-5.2 -13.530427,-11.55478 -13.38435,-13.08522 -15.61044,-16.93913 -17.31479,-29.97565 -0.60869,-4.65392 -1.32174,-9.44 -1.57913,-10.63305 -0.58435,-2.7026 -4.6713,-7.20695 -5.86782,-6.46956 -1.8887,1.16869 -1.22435,19.24174 1.00869,27.45739 1.20348,4.43478 3.36696,13.38435 4.8,19.8887 4.83826,21.91304 7.61739,28.50434 21.41218,50.76869 7.753037,12.52174 11.210427,14.47652 25.937387,14.67826 8.4,0.11826 10.31652,0.51479 14.53913,2.99479 5.37043,3.15826 19.25217,18.04174 16.98782,18.21565 -7.86782,0.60174 -23.17565,-3.34957 -29.12695,-7.52 -2.50435,-1.75305 -7.11652,-5.64174 -10.25044,-8.64 -3.13391,-2.99826 -6.48348,-5.45044 -7.44348,-5.45044 -3.23478,0 26.25044,29.70435 33.03305,33.27305 2.06956,1.08869 6.62261,4.20174 10.11826,6.92174 3.88174,3.01565 6.81043,4.58782 7.52696,4.03826 0.64347,-0.49044 3.52695,-1.53392 6.41043,-2.31652 4.32696,-1.1687 6.66435,-2.89392 13.34261,-9.84348 5.26956,-5.48522 10.20174,-9.46087 14.1113,-11.38435 5.41566,-2.65739 6.91131,-2.91131 15.14783,-2.55304 5.02609,0.21913 11.68,0.4626 14.78261,0.53913 3.36,0.08 5.64522,0.62608 5.64522,1.33913 0,1.9513 -16.65044,17.28 -21.6974,19.97217 -4.24,2.26435 -6.04173,2.48348 -20.76869,2.5287 -15.2,0.0487 -21.53739,1.02608 -24.60522,3.7913 -2.25391,2.0313 23.69391,16.25391 32.17391,17.63478 9.90609,1.61739 15.36348,3.22435 21.11653,6.22609 5.53739,2.89391 7.24869,3.22435 18.27826,3.54783 10.62605,0.31304 11.30435,0.24 5.36695,-0.60522 -9.14782,-1.29739 -14.9913,-4.32348 -24.44174,-12.66435 -7.49565,-6.61913 -9.26608,-9.72869 -4.70956,-8.28174 1.12,0.35478 6.94609,0.0731 12.94609,-0.62608 15.86434,-1.84348 17.48171,-1.17914 26.44171,10.86608 8.3652,11.24522 7.7218,11.06087 24.2574,6.86957 13.1896,-3.33913 18,-5.26261 18,-7.18609 0,-0.8 4.3548,-5.73217 9.6765,-10.96 5.3218,-5.2313 9.6766,-10.05565 9.6766,-10.72348 0,-0.6713 0.5078,-5.32174 1.1304,-10.33043 1.3287,-10.70261 4.3722,-17.94435 11.68,-27.80522 2.8974,-3.90957 5.8783,-8.45217 6.6261,-10.09044 0.7513,-1.64173 1.8782,-2.81391 2.5043,-2.60521 0.6296,0.20869 2.0105,4.45565 3.0679,9.43652 2.1634,10.20174 1.7634,17.45391 -1.3009,23.45391 -2.0974,4.10435 -12.0383,14.05913 -18.3304,18.35478 -4.7305,3.22783 -20.4313,18.72696 -20.4313,20.17392 0,0.5913 5.2,-0.85913 11.5582,-3.22087 20.5461,-7.63478 45.9652,-26.62957 64.5148,-48.2087 11.9722,-13.92695 25.5478,-33.30782 31.1687,-44.50435 2.6713,-5.32173 6.5391,-12.31304 8.6017,-15.53391 7.1583,-11.2 9.9931,-24.35478 9.8539,-45.74956 l -0.087,-13.97566 -2.073,4.50783 c -1.1409,2.48 -2.807,8.71652 -3.7043,13.85739 -1.92,11.01217 -7.0609,24.01044 -11.4887,29.05391 -3.2348,3.68696 -32.6609,19.48522 -33.927,18.21566 -0.3617,-0.36174 0.1148,-1.97218 1.0574,-3.58261 0.9391,-1.60348 3.0191,-6.78957 4.6191,-11.52 6.5044,-19.23479 14.0974,-28.57392 30.9809,-38.10435 8.1182,-4.57739 10.1496,-6.88 12.1496,-13.76 1.4817,-5.10261 1.4817,-7.32174 -0.014,-22.06261 -2.2052,-21.78435 -7.4783,-41.85391 -13.6731,-52.03478 -6.7165,-11.03652 -11.9513,-18.75131 -12.4104,-18.29218 -0.2261,0.22609 1.6,5.92348 4.0661,12.66087 4.0069,10.97392 4.4869,13.32174 4.5913,22.46609 l 0.1182,10.21217 -6.2017,12.11131 c -6.1113,11.94435 -12.5983,20.68174 -15.3496,20.68174 -2.0382,0 -3.0608,-10.22609 -2.2921,-22.86957 0.6956,-11.48522 1.9339,-14.89739 10.3861,-28.67478 6.2678,-10.21565 6.4904,-11.29739 4.0695,-19.95478 -3.7774,-13.49566 -5.0156,-15.98957 -13.2174,-26.6087 -8.7895,-11.377393 -17.3808,-19.130436 -31.8608,-28.744349 -9.6522,-6.410435 -32.9809,-18.827826 -33.8087,-17.996522 -1.1618,1.158261 1.2661,4.163478 7.2,8.921739 8.3095,6.664348 13.0365,12.532174 17.8887,22.191305 3.6521,7.276521 3.9652,8.64 4.313,19.123477 0.4417,13.41913 -0.6261,16.23305 -4.3095,11.31479 -2.0769,-2.68688 -4.2284,-5.31516 -6.4522,-7.88174 -5.4331,-6.278266 -12.3026,-16.49044 -14.8174,-22.03131 -1.5409,-3.391304 -2.0557,-7.015652 -2.0731,-14.539131 l -0.024,-10.017391 -4.5565,-5.408696 c -4.953,-5.871304 -8.8974,-8.417391 -13.0435,-8.417391 -1.4608,0 -7.6521,-1.186087 -13.76,-2.636522 -11.36,-2.69913 -27.986,-4.890435 -37.0747,-4.890435 -4.7026,0 -4.9287,0.118261 -2.9983,1.579131 1.1791,0.890435 4.4591,1.593043 7.5374,1.613913 2.9948,0.01739 8.0765,0.810435 11.287,1.76 4.88,1.443478 7.12,3.057391 13.6347,9.81913 8.0974,8.403479 9.6557,11.467827 5.3774,10.556522 -1.3321,-0.281739 -5.3217,-1.067826 -8.8695,-1.73913 -8.9113,-1.697391 -16.2574,-5.937392 -21.2835,-12.292174 -2.3339,-2.956522 -6.2435,-6.535652 -8.6852,-7.954783 -2.4383,-1.422609 -5.20004,-3.241739 -6.13569,-4.038261 -0.93218,-0.8 -1.89913,-1.380869 -2.14957,-1.293913 -0.25043,0.09043 -1.90261,0.347826 -3.67652,0.58087 m 27.06088,10.361739 c 3.2139,2.643478 17.5791,9.65913 18.3026,8.93913 0.9844,-0.987826 -9.9478,-9.356521 -13.5165,-10.347826 -6.7931,-1.885217 -8.2609,-1.453913 -4.7826,1.408696 m 92.5948,-0.8 c -10.4348,3.213913 -7.2835,4.21913 16.3443,5.217391 7.3913,0.313044 15.0991,1.050435 17.1304,1.645218 6.007,1.749565 5.0087,0.417391 -1.2034,-1.606957 -3.1409,-1.026087 -6.2922,-2.323478 -6.9983,-2.88 -1.9826,-1.565217 -12.2574,-4.05913 -16.4522,-3.989565 -2.073,0.03478 -6.0382,0.761739 -8.8208,1.617391 m -95.4713,3.819131 c 0,2.852174 17.0921,11.074782 19.0156,9.147826 0.2644,-0.26087 -3.9061,-2.633044 -9.2696,-5.269565 -5.3565,-2.636522 -9.746,-4.382609 -9.746,-3.878261 m 91.1582,3.186087 c 4.567,4.010434 33.527,7.902608 41.9757,5.641739 4.5321,-1.213913 -7.7739,-4.664348 -16.9774,-4.765218 -5.6521,-0.103891 -11.2998,-0.376476 -16.9357,-0.817391 -4.8556,-0.403478 -8.4869,-0.431304 -8.0626,-0.05913 m -143.56869,0.650434 c -4.17391,0.8 -2.6713,2.08 4.83478,4.10087 6.69566,1.801739 18.01044,7.088696 27.12348,12.674783 l 3.73565,2.292174 -2.32,-3.262609 c -3.47831,-4.883478 -11.367,-11.826087 -16.29222,-14.337391 -4.16,-2.12174 -10.74783,-2.688696 -17.08174,-1.467827 m 186.80344,0.737392 c 0,0.233043 0.7513,0.709565 1.6696,1.064348 0.9565,0.365217 1.3878,0.184347 1.0087,-0.424348 -0.6261,-1.022609 -2.6783,-1.509565 -2.6783,-0.64 m -186.53561,7.73913 c 6.94261,5.766957 27.3113,13.554783 31.65217,12.104348 1.78783,-0.591304 -14.08,-9.554782 -20.82783,-11.763478 -2.99478,-0.98087 -7.38434,-2.062609 -9.74956,-2.4 l -4.29913,-0.619131 z m 114.94261,7.433044 c -1.7913,7.130435 3.8783,20.114783 13.3774,30.650435 l 4.3513,4.824351 -1.1478,-4.302612 c -2.3305,-8.765217 -12.6261,-31.94087 -14.7826,-33.273044 -0.6053,-0.372174 -1.4157,0.573913 -1.7983,2.10087 m 6.0104,-1.293913 c 0,0.358261 1.9861,5.151304 4.4139,10.646956 6.2331,14.111305 10.6261,25.704353 10.7061,28.243483 0.059,1.88522 0.2157,1.81913 1.1722,-0.50783 3.4052,-8.295652 -4.2609,-28.678261 -13.913,-36.991305 -1.3113,-1.126956 -2.3792,-1.753043 -2.3792,-1.391304 m -218.25041,7.617391 c 0,1.495652 -4.518257,17.648696 -6.020857,21.530435 -1.41218,3.652174 1.58608,0.803478 3.871297,-3.669565 2.02782,-3.975652 4.28174,-19.349566 2.84174,-19.349566 -0.38261,0 -0.69565,0.671305 -0.69565,1.492174 m -7.106087,6.525218 c -1.89689,4.20745 -3.00399,8.727819 -3.26609,13.335652 l -0.42782,7.13739 2.61217,-7.290433 c 3.26956,-9.123479 5.408697,-17.892174 4.563477,-18.733914 -0.35478,-0.354782 -1.919997,2.142609 -3.478257,5.551305 m 291.582587,0.06956 c -3.0678,0.845217 -7.4469,1.189565 -10.4835,0.831304 -3.5443,-0.420869 -5.2104,-0.226087 -5.2104,0.605218 0,0.674782 1.3287,1.227826 2.9565,1.231304 3.4644,0.0035 7.6522,2.406957 15.8818,9.106087 10.2469,8.347829 11.9721,8.890439 29.5443,9.321739 9.4957,0.22957 15.5861,-0.0243 15.5861,-0.65391 0,-1.766959 -19.0713,-16.800003 -24.7304,-19.499133 -6.1879,-2.946087 -14.9566,-3.297392 -23.5444,-0.939131 m 3.6557,1.773913 -2.6853,1.130435 2.6853,0.869565 c 1.4782,0.48 5.4608,1.182609 8.8521,1.565218 4.1253,0.466087 9.8087,2.452174 17.2,6.006956 l 11.0401,5.311305 -5.374,-4.852174 c -7.7843,-7.026087 -16.7756,-11.311305 -23.5582,-11.227826 -3.0087,0.03478 -6.6783,0.577391 -8.16,1.196521 m 1.5861,8.386087 c 8.4626,7.325218 12.2574,8.758261 22.2365,8.4 l 8.6887,-0.313043 -8.6887,-4.61913 c -5.687,-3.026087 -11.0226,-4.98087 -15.447,-5.655653 -3.7217,-0.566956 -7.9061,-1.293913 -9.3078,-1.613913 -1.9861,-0.452174 -1.44,0.379131 2.5183,3.801739 M 134.40438,95.81077 c -2.57391,1.005217 -4.62608,2.306087 -4.55652,2.897391 0.0765,0.671305 7.16522,1.078265 18.85218,1.078265 10.30608,0 18.40347,-0.320004 18,-0.709569 -0.40696,-0.386087 -4.17739,-1.714783 -8.38261,-2.956522 -9.12696,-2.685217 -17.53044,-2.796522 -23.91305,-0.309565 m 1.45392,7.12348 -10.75131,1.21739 4.52522,2.38608 c 6.84522,3.60696 19.33913,3.36348 29.46783,-0.57043 l 7.60695,-2.95652 -4.13565,-0.74434 c -5.56522,-1.00174 -13.7913,-0.79653 -26.71304,0.66782 m -75.259127,27.84348 c -5.8087,2.27826 -9.6174,4.77566 -13.44,8.82087 -3.52348,3.72174 -3.59305,3.92696 -1.07479,3.17913 1.8419,-0.58328 3.63908,-1.29936 5.37739,-2.1426 1.47827,-0.74087 6.8,-2.62609 11.82609,-4.18783 5.02609,-1.56174 10.83131,-3.77739 12.90087,-4.92174 l 3.76348,-2.08696 -8.06261,0.0383 c -4.43826,0.0209 -9.51652,0.60522 -11.29043,1.30087 m 1.61391,8.67479 c -5.61739,1.96174 -12.14957,4.48 -14.51478,5.6 l -4.30261,2.03478 5.37739,0.36174 c 9.18261,0.61217 15.96522,-1.52 21.74609,-6.83826 2.85913,-2.62957 4.41739,-4.72348 3.52,-4.72348 -0.88696,0 -6.2087,1.60696 -11.82609,3.56522 m 332.215637,1.24174 c 0,1.1513 -0.9461,5.48173 -2.1043,9.62087 -1.8444,6.78632 -3.601,13.59616 -5.2696,20.42782 -1.7391,7.09565 -3.4956,13.87131 -3.9061,15.05391 -1.5374,4.4174 3.6035,-3.1513 8.72,-12.84173 6.0661,-11.49566 7.0922,-16.07305 5.6661,-25.32522 -1.0435,-6.75478 -3.113,-11.38087 -3.1061,-6.93565 m -6.1913,6.04521 c -2.8035,5.16174 -2.6087,6.02435 0.7548,3.30435 1.6556,-1.34261 2.2852,-2.84174 2.0348,-4.85565 -0.3548,-2.83826 -0.4244,-2.79652 -2.7861,1.5513 m 33.0643,-0.69565 c 0,0.30957 1.2035,1.01913 2.6748,1.57913 2.9496,1.12348 15.1374,9.13391 20.887,13.73218 3.3982,2.71652 3.5756,2.75826 2.3826,0.52173 -0.7096,-1.33565 -1.7878,-2.42087 -2.3931,-2.42087 -0.6052,0 -0.7826,-0.51478 -0.3965,-1.13739 0.3826,-0.62608 -1.9304,-3.77043 -5.1478,-6.9913 -5.7044,-5.70435 -6.0035,-5.85044 -11.9304,-5.85044 -3.3392,0 -6.0766,0.25392 -6.0766,0.56696 m -335.405177,4.54261 c 0.13217,15.12696 4.10087,26.71304 11.88521,34.70609 7.540867,7.73913 20.333917,15.45043 20.333917,12.25391 0,-0.33391 -1.23131,-5.46435 -2.7374,-11.39826 -4.16695,-16.4487 -5.76695,-19.12 -16.678257,-27.81565 -5.22434,-4.17044 -9.80173,-8.52174 -10.16695,-9.68 -1.11305,-3.49913 -2.67479,-2.35479 -2.63652,1.93391 m 340.838277,4.09739 c 4.1217,4.26435 14.3652,10.53565 16.2017,9.92348 2.24,-0.74783 -15.5652,-13.69739 -18.8869,-13.73913 -0.5635,-0.0104 0.6469,1.7113 2.6852,3.81565 m -43.92,0.81739 c -2.887,3.12348 -5.0539,16.75478 -3.9861,25.10609 0.7026,5.50956 0.9217,5.94087 1.8156,3.57565 1.4331,-3.7913 5.8505,-21.26609 6.567,-25.98956 0.7374,-4.8487 -1.273,-6.07653 -4.3965,-2.69218 m -290.139147,2.6087 c 9.259127,15.23826 11.464337,19.10956 11.464337,20.12869 0,0.67131 2.17392,4.31305 4.83479,8.09392 5.21739,7.41217 5.90261,6.77217 3.27652,-3.08522 -2.75131,-10.34435 -6.60174,-16.75478 -12.932177,-21.53044 -5.56521,-4.20521 -7.71826,-5.37391 -6.64347,-3.60695 m -3.23826,4.57043 c 1.69043,12.06957 5.7913,18.99131 15.238257,25.7287 4.69217,3.34261 5.13739,3.48869 3.49217,1.14782 -1.03304,-1.47826 -3.58957,-5.96869 -5.67304,-9.97913 -2.08696,-4.01043 -6.031307,-10.53913 -8.765217,-14.51478 l -4.97391,-7.22087 z m -40.08,19.44 c -3.22783,1.14435 -7.25218,3.4087 -8.94609,5.02609 -3.67652,3.51652 -13.0087,17.41913 -12.22609,18.20522 0.30609,0.30261 2.88348,-1.59305 5.73217,-4.21565 2.84522,-2.62261 8.80348,-7.44 13.23827,-10.70261 4.43478,-3.26261 8.98434,-6.97392 10.1113,-8.24348 2.01739,-2.26783 2.01739,-2.30609 0,-2.22609 -1.12696,0.0383 -4.68522,1.0087 -7.90956,2.15652 m 0.35478,9.35652 c -12.33739,9.07827 -20.96348,16.88348 -17.42261,15.76348 10.10087,-3.2 20.75478,-11.29391 25.54783,-19.41913 1.1826,-2.00348 2.04173,-3.62087 1.91304,-3.60348 -0.12522,0.0209 -4.64348,3.28696 -10.03826,7.25913 m 379.568727,3.03653 c 1.2243,8.66087 5.3565,15.82608 12.6435,21.91652 6.8591,5.72869 8.4869,6.22261 6.0869,1.84348 -1.3433,-2.44471 -2.6836,-4.89108 -4.0209,-7.33913 -3.3774,-6.17392 -12.8765,-20.09044 -14.32,-20.98087 -0.7721,-0.47653 -0.8939,0.98087 -0.3895,4.55652 m 5.113,-3.86783 c 0.3409,0.88 3.2209,5.78435 6.4,10.89044 3.1722,5.10956 7.3739,11.88521 9.3252,15.05391 3.5409,5.73913 3.5513,5.74609 2.9392,1.88522 -0.9322,-5.86087 -5.6348,-17.14783 -8.3687,-20.07652 -3.8853,-4.16696 -10.974,-9.50609 -10.2957,-7.75305 m -354.504337,35.2 c 1.02956,10.28174 4.60869,17.00174 13.54435,25.43305 4.13913,3.89913 7.999997,7.09217 8.580867,7.09217 1.37391,0 -13.172177,-28.01043 -18.006957,-34.67478 -2.03826,-2.80696 -3.96522,-5.10609 -4.27826,-5.10609 -0.31304,0 -0.24348,3.26609 0.15652,7.25913 m 6.88696,-2.81043 c 1.29739,1.98608 6.02435,10.53913 10.5113,19.00174 4.486957,8.4626 8.285217,15.23478 8.441737,15.05043 0.15652,-0.18435 -0.08,-3.30435 -0.52174,-6.93913 -1.42609,-11.73565 -9.328687,-24.80696 -17.565217,-29.06435 l -3.21739,-1.66609 z m -37.06435,5.06087 c -5.66261,4.10434 -7.62435,7.34608 -9.6,15.86434 -2.30957,9.94783 -1.55826,11.79479 1.92348,4.72348 1.6,-3.24869 5.09913,-9.73913 7.78087,-14.42087 2.67826,-4.68174 4.70608,-8.67478 4.50434,-8.87652 -0.19826,-0.19826 -2.27478,1.01913 -4.60869,2.71304 m 5.29739,2.58087 c -5.45391,7.62435 -15.18261,28.23305 -13.92348,29.49566 0.61913,0.61913 7.05044,-6.19827 10.32348,-10.94957 4.03478,-5.85391 9.84696,-23.11304 7.78435,-23.11304 -0.50435,0 -2.38609,2.05565 -4.18435,4.56695 m 346.946117,-2.41043 c -5.4609,2.84174 -12.4383,9.14782 -16.2435,14.67826 -3.0261,4.4 -11.0365,22.90087 -10.2539,23.68348 1.0365,1.03652 16.0974,-16.48696 20.0348,-23.31826 2.5565,-4.43479 6.0834,-9.89913 7.8365,-12.14261 1.753,-2.24696 3.0052,-4.25739 2.7896,-4.46957 -0.2192,-0.21217 -2.094,0.49392 -4.1635,1.5687 m 5.3043,2.92522 c -1.9339,2.20521 -6.1739,8.13217 -9.4191,13.17217 -3.2452,5.03652 -8.7096,12.27826 -12.1461,16.09739 -3.433,3.81218 -6.0452,7.13044 -5.8017,7.37391 0.2434,0.24348 4.5669,-1.5513 9.6069,-3.98956 10.6957,-5.17565 13.5305,-8.26087 17.9618,-19.52 2.9704,-7.54783 5.1478,-17.14087 3.8921,-17.14087 -0.313,0 -2.1565,1.80174 -4.0939,4.00696 m 16.2157,46.23304 c -0.017,7.3113 1.5304,12.08 7.4191,22.86957 2.5531,4.6713 3.9409,6.34782 4.1913,5.06086 0.5113,-2.63304 -4.9391,-22.9913 -7.4017,-27.63826 -3.9131,-7.3913 -4.1913,-7.40869 -4.2087,-0.29217 m 7.1374,1.04348 c 1.3878,2.74782 2.5356,5.75304 2.5495,6.68522 0.014,0.93913 1.1548,5.56869 2.5322,10.29565 l 2.5078,8.59826 0.7792,-7.25218 c 1.2208,-11.43304 -0.967,-17.52 -7.7287,-21.46086 l -3.1653,-1.84348 z M 68.891343,290.44382 c -4.33043,6.34783 -5.60348,10.71305 -5.60348,19.20348 0,8.10783 2.0487,18.55652 3.20696,16.36522 0.44174,-0.83478 1.09913,-5.21044 1.46087,-9.71826 0.36174,-4.50783 1.13739,-9.46087 1.72521,-11.00522 0.98088,-2.58783 3.43305,-19.17565 2.90783,-19.69739 -0.12522,-0.1287 -1.7913,2.05913 -3.69739,4.85217 m 4.16,11.2 c -1.40522,7.24522 -2.74435,17.04348 -2.97391,21.77392 -0.4,8.18434 -0.34783,8.43478 1.13043,5.21739 1.45044,-3.14783 6.08,-17.94087 7.52348,-24.03479 0.70261,-2.96347 -1.26261,-16.12521 -2.40696,-16.12521 -0.39652,0 -1.86782,5.92347 -3.27304,13.16869 m 250.434777,23.89565 c -6.8626,9.29044 -9.6696,16.15305 -9.6835,23.65914 l -0.01,6.43478 2.7479,-4.04522 c 3.5826,-5.26956 13.0295,-30.49043 11.8608,-31.65913 -0.2434,-0.24348 -2.4521,2.28174 -4.9113,5.61043 m 5.0331,3.72522 c -1.9551,5.75539 -4.1813,11.41505 -6.6713,16.96 -2.0766,4.49392 -3.52,8.43131 -3.2035,8.74435 0.9808,0.98435 11.44,-9.87826 13.0052,-13.50957 1.5617,-3.62086 1.9061,-15.52695 0.5531,-18.97391 -0.5914,-1.49217 -1.5305,0.24348 -3.6835,6.78261 m -208.25395,-5.71478 c 0,0.52174 1.33218,1.52348 2.95652,2.22608 1.62435,0.69914 7.45392,3.23479 12.94957,5.63479 5.49565,2.4 10.30956,4.36521 10.69217,4.36521 1.22435,0 -6.57391,-7.5826 -9.93391,-9.66608 -3.44,-2.1287 -16.66435,-4.16348 -16.66435,-2.56 m 265.94785,1.66608 c -3.6524,0.63082 -7.0592,2.25956 -9.8435,4.70609 -4.5287,3.87478 -15.7322,19.73218 -14.6817,20.78261 0.3339,0.33391 4,-2.89043 8.1461,-7.1687 4.146,-4.27826 11.3739,-10.24 16.0626,-13.24869 4.6887,-3.0087 8.5287,-5.66609 8.5287,-5.90261 0,-0.55652 -1.4122,-0.41391 -8.2122,0.8313 m 3.1861,5.73914 c -5.4261,3.25217 -11.7148,7.96521 -13.9792,10.46956 -2.2608,2.50435 -6.4069,6.85217 -9.2173,9.66609 -2.8035,2.81043 -4.9392,5.11304 -4.734,5.11304 0.1983,0 2.9809,-0.90435 6.1809,-2.00348 17.2939,-5.94782 26.1287,-13.47826 31.0713,-26.48 0.5635,-1.48174 0.9148,-2.69217 0.7826,-2.69217 -0.1322,0 -4.6783,2.66782 -10.1043,5.92348 m -264.83482,0.46608 c 3.25218,2.71653 15.03652,7.58261 18.36522,7.58261 4.05565,0 -4.90435,-4.80695 -16.21217,-8.69565 l -5.91305,-2.03478 z m -22.09391,8.10435 c -0.39652,2.65739 -0.44522,5.92348 -0.10435,7.25913 0.77217,3.07478 7.07826,13.07826 7.79131,12.36522 0.78956,-0.79304 -5.12696,-24.44522 -6.11479,-24.44522 -0.46608,0 -1.17217,2.17044 -1.57217,4.82435 m 5.38087,-2.13565 c 1.07478,2.81391 2.18782,7.18261 3.76,14.78261 0.70609,3.39826 1.68,6.18087 2.16695,6.18087 1.32174,0 0.43479,-12.29218 -1.09913,-15.20696 -1.02519,-1.82816 -2.19287,-3.57269 -3.49217,-5.21739 -1.68696,-2.10087 -1.97913,-2.21913 -1.33565,-0.53913 m 91.68696,3.87478 c -6.27131,1.45044 -11.63826,4.63304 -16.85566,9.99652 l -4.77913,4.91131 3.40174,-0.97392 c 1.86783,-0.53565 3.92348,-1.29739 4.56348,-1.69739 0.64,-0.39304 6.58435,-2.06261 13.20348,-3.70782 6.62261,-1.64174 13.97565,-3.84 16.34087,-4.88348 l 4.30261,-1.89565 -3.76348,-0.80348 c -7.39131,-1.57913 -12.42435,-1.87131 -16.41391,-0.94609 m 9.42608,8.52174 c -3.54782,1.13391 -8.9913,2.5913 -12.09739,3.24174 -3.10261,0.64696 -5.64174,1.62782 -5.64174,2.17739 0,0.54957 -0.81391,0.99826 -1.80869,0.99826 -2.61566,0 -8.94261,2.43478 -8.94261,3.44348 0,1.51304 20.22956,0.97391 23.95478,-0.64696 4.27131,-1.85391 14.81739,-11.30435 12.59826,-11.29043 -0.88695,0.003 -4.51478,0.93913 -8.06261,2.07304 m -71.02608,17.46783 c -0.48696,3.68 -0.91131,12.01391 -0.93566,18.51826 -0.0522,14.01043 1.38435,17.64522 10.26087,25.96869 l 8.14609,7.63131 c 1.41913,1.32869 3.06435,2.41739 3.65217,2.41739 1.46087,0 0.16348,-15.26957 -1.84,-21.64174 -1.70087,-5.41217 -8.48695,-17.30087 -13.63478,-23.87826 -2.67478,-3.42261 -3.19652,-5.02261 -3.04348,-9.33565 0.27131,-7.66261 -1.56521,-7.43652 -2.60174,0.32 m 89.83653,6.87652 c -5.3287,0.56 -8.93913,1.44696 -8.34435,2.04522 0.28174,0.27826 4.09043,1.49565 8.45913,2.69913 4.37217,1.20348 10.48352,3.61391 13.57562,5.34956 3.0957,1.73913 5.8783,3.16174 6.1809,3.16174 0.7235,0 -6.6087,-10.19826 -8.327,-11.58261 -1.76343,-1.41913 -6.88691,-2.16348 -11.5443,-1.66956 m -89.15131,11.63826 c -0.073,10.12174 2.60522,17.04696 8.92174,23.06087 4.31304,4.10087 4.92174,3.64174 1.89565,-1.42957 -1.09913,-1.84348 -3.56869,-8.43478 -5.48869,-14.64348 -5.10957,-16.5113 -5.25913,-16.70956 -5.3287,-6.98782 m 5.29044,-2.44522 c 0,5.81218 9.38087,28.78609 11.75652,28.78609 0.43478,0 0.39304,-2.91131 -0.0939,-6.46957 -0.90782,-6.63652 -2.83478,-11.21043 -8.45217,-20.06956 -2.88696,-4.55652 -3.21043,-4.77913 -3.21043,-2.24696 m 75.22782,0.26087 c 2.48348,2.64348 9.01913,5.23826 16.16,6.41739 l 3.76343,0.61913 -3.22777,-1.54087 c -6.58783,-3.14434 -18.00001,-8.14956 -18.58435,-8.14956 -0.33392,0 0.51826,1.19304 1.88869,2.65391 m 8.09392,-1.04348 c 9.85043,4.58087 16.78951,7.22435 17.38781,6.62957 0.9252,-0.9287 -12.20868,-6.8 -16.84868,-7.53392 l -3.76348,-0.5913 z m 81.17561,7.17565 c 0,0.84522 0.487,2.02783 1.0922,2.62957 0.5983,0.59826 2.4591,6.57391 4.1357,13.28 1.6695,6.70261 3.3043,11.74957 3.6208,11.21739 0.32,-0.53565 0.8974,-4.35826 1.287,-8.49739 0.5704,-6.10783 0.3374,-8.21565 -1.2244,-11.19652 -2.2539,-4.29913 -8.9113,-9.85044 -8.9113,-7.43305 m -5.3252,2.36522 c -0.6844,1.98349 -1.0643,4.05921 -1.1269,6.15652 0,4.16348 4.2991,12.50087 8.5008,16.49044 3.0226,2.86956 3.3253,2.96 3.3253,0.97391 0,-1.2 -0.967,-4.99478 -2.1496,-8.4313 -1.1826,-3.43652 -2.167,-7.01913 -2.1844,-7.96522 -0.017,-0.93913 -1.2034,-3.61739 -2.6365,-5.94783 l -2.6017,-4.23652 z m -125.41911,1.30087 c 0.35826,0.93913 0.65043,2.53913 0.65043,3.55826 0,2.94261 5.80522,8.11131 13.86087,12.34783 4.08,2.14261 7.74957,3.89565 8.15305,3.89565 1.39826,0 -7.09565,-9.16869 -14.19131,-15.31826 -7.23478,-6.27478 -9.65217,-7.55478 -8.47304,-4.48348 m 16.2087,7.85044 c 6.37217,6.52869 8.58782,8.30261 5.86434,4.69565 -3.0713,-4.06957 -8.09043,-9.10261 -10.13217,-10.15652 -1.18261,-0.61218 0.73739,1.84348 4.26783,5.46087"
   style="stroke-width:3.47826;fill:#eff0ee;fill-opacity:1"
   id="path1"
   sodipodi:nodetypes="cccccccscsccccccccsccccccccccccccsccccccccccccccccccccccsscccccscccccccsccscccscccccccccccscccccccccccccccccccccccccscccsccscccccccccccccscccccccccccccccccsccccccsccsccccccsccccccscccccccccccccccccccccccsccsccccccscscccccscccccccccccssccccccccsccccccccccccscscscccccsccccccccccccccccsccccscccccccccccccccscscccccccccccccccccccccccccccccccccccccccccccccccccccccccccccccccscccccccccscccsccccccccccccccccccccsccccccccccccccscccccccccsccccccccccccccccsccscccsccccccccccccccscccccccccccccccsccccccccccccccccccccccscsccssccccccccsccccscccscccccccsccscccccccccccccccscscccccccscccccscccccccccssccccssssccccsccsccsccccccscccscccccccccccccccssscccccccsccccccccsccccccccscccccccsccccccccccccccccsscccccscscccccc"
   transform="matrix(0.2875,0,0,0.2875,0,-0.1)" />&#10;    &#10;</svg>
</svg>
