<?xml version="1.0" encoding="UTF-8" standalone="no"?>
<svg
   version="1.1"
   width="438.50082"
   height="424.97321"
   viewBox="0 0 438.50082 424.97321"
   id="svg1"
   sodipodi:docname="wreath.svg"
   inkscape:version="1.3 (0e150ed6c4, 2023-07-21)"
   xmlns:inkscape="http://www.inkscape.org/namespaces/inkscape"
   xmlns:sodipodi="http://sodipodi.sourceforge.net/DTD/sodipodi-0.dtd"
   xmlns="http://www.w3.org/2000/svg"
   xmlns:svg="http://www.w3.org/2000/svg">
  <defs
     id="defs1" />
  <sodipodi:namedview
     id="namedview1"
     pagecolor="#ffffff"
     bordercolor="#666666"
     borderopacity="1.0"
     inkscape:showpageshadow="2"
     inkscape:pageopacity="0.0"
     inkscape:pagecheckerboard="0"
     inkscape:deskcolor="#d1d1d1"
     inkscape:zoom="1.2303796"
     inkscape:cx="250.73562"
     inkscape:cy="283.24592"
     inkscape:window-width="1920"
     inkscape:window-height="991"
     inkscape:window-x="-9"
     inkscape:window-y="-9"
     inkscape:window-maximized="1"
     inkscape:current-layer="svg1" />
  <path
     fill="#c4c8ba"
     fill-rule="evenodd"
     d="m 216.50717,1.0392757 c -15.36348,1.7773913 -24.66783,9.0191303 -32.69565,25.4469563 -1.4087,2.886957 -2.82783,5.773914 -4.25739,8.646957 -0.38957,0.761739 -6.16348,3.728696 -12.83479,6.598261 -6.66782,2.873043 -13.92695,6.406957 -16.12521,7.857391 -11.68696,7.704348 -11.63827,5.944348 0.18086,-6.692174 6.48696,-6.932174 10.48696,-12.441739 14.24696,-19.603478 6.19131,-11.808696 6.46609,-12.653913 4.12174,-12.653913 -3.00174,0 -18.9113,8.796522 -22.62261,12.507826 -4.12174,4.125217 -5.84348,10.699131 -5.84348,22.354783 0,8.511304 -0.60869,9.634782 -5.91652,10.873043 -5.67304,1.321739 -11.78087,5.533913 -22.86956,15.770435 -12.434786,11.478261 -18.699134,18.845218 -28.525221,33.537387 -3.843479,5.74957 -7.210435,10.05914 -7.485218,9.57914 -0.278261,-0.48 -0.820869,-2.64696 -1.213913,-4.82087 -0.629565,-3.50609 -0.104348,-4.87653 4.695652,-12.22957 5.655653,-8.664347 8.215653,-15.450434 9.154783,-24.264348 l 1.130435,-10.626087 c 0.316522,-2.970434 0.132174,-5.373913 -0.413913,-5.373913 -1.547826,0 -11.773913,12.956522 -14.062609,17.822609 -3.478261,7.391305 -4.486957,15.930435 -3.328696,28.111309 0.577392,6.04173 1.321739,12.08695 1.655653,13.43304 1.067826,4.31652 -2.713044,5.6 -18.292175,6.22609 -16.313043,0.65391 -18.921739,1.65565 -30.64,11.73913 -4.031304,3.4713 -8.215652,6.80695 -9.300869,7.41217 -3.610435,2.01739 -0.313044,2.87304 12.580869,3.25913 15.693913,0.46609 19.036522,-0.83826 30.44174,-11.89217 7.693913,-7.45739 11.175652,-10.07305 12.132174,-9.11305 0.281739,0.27826 -1.968696,4.87305 -5.00174,10.2087 -3.029565,5.33217 -7.638261,14.90783 -10.233043,21.28 -3.193044,7.83652 -5.52,12.03478 -7.189565,12.97739 -1.356522,0.76522 -6.573914,2.65739 -11.603479,4.20174 -15.965217,4.90435 -17.70087,6.44174 -30.4069566,26.88696 -1.5026087,2.41739 -3.5304348,5.19304 -4.5078261,6.17043 -3.7565218,3.75652 -0.3095652,3.81913 9.8747827,0.18087 17.144348,-6.12869 25.704348,-13.45043 33.450435,-28.61565 1.582609,-3.10261 3.561739,-5.85739 4.393044,-6.1287 1.126956,-0.36521 1.290434,0.0313 0.643478,1.53739 -1.763478,4.10087 -3.686957,17.3287 -3.815652,26.21914 l -0.128696,9.13739 -5.558261,4.62608 c -3.383991,2.79852 -6.846237,5.50105 -10.382609,8.10435 -8.758261,6.32696 -11.092174,11.49218 -13.015652,28.83131 -1.850435,16.71304 -1.798261,16.76521 7.627826,7.32521 10.111305,-10.12521 15.36,-19.97913 18.191305,-34.16347 1.095652,-5.49914 2.222608,-10.22957 2.504348,-10.50783 0.27826,-0.27826 0.834782,2.76869 1.231304,6.77565 1.033043,10.32348 5.860869,35.30435 8.073043,41.77391 1.777392,5.18957 1.773913,5.72174 -0.04174,11.07131 -1.053913,3.09217 -3.318261,7.40869 -5.036521,9.59652 -6.368696,8.10435 -9.478261,18.60174 -8.26087,27.86783 1.297391,9.85043 6.201739,28.33739 7.415652,27.94782 1.763478,-0.56347 7.558261,-15.61391 10.98087,-28.52869 l 3.001739,-11.3287 -2.302609,-10.82782 c -1.269565,-5.95479 -2.633043,-11.91653 -3.029565,-13.25218 -0.448696,-1.49565 -0.264348,-2.41739 0.476522,-2.41739 0.660869,0 1.2,0.66435 1.2,1.47478 0,2.46957 9.241739,22.93218 13.892174,30.76174 2.406956,4.05218 6.100869,9.62783 8.208695,12.39305 l 3.836522,5.01913 -2.21913,6.56347 c -2.671305,7.91653 -2.831305,14.74087 -0.448696,19.34609 2.886957,5.58261 11.38087,17.98261 12.32,17.98261 1.405218,0 2.58087,-7.45391 2.546087,-16.1287 -0.03478,-8.77217 -1.09913,-11.58608 -7.606956,-20.1113 -6.191305,-8.11478 -3.067826,-6.64348 5.193043,2.4487 4.26087,4.68869 9.940875,10.62956 12.622605,13.20347 7.53044,7.23479 25.64522,20.47305 32.98435,24.11131 5.80522,2.87652 6.67826,3.72174 7.20348,6.94261 0.73044,4.50435 9.66261,20.64348 13.72174,24.79652 2.52174,2.57391 25.12,15.26609 27.18957,15.26609 1.14782,0 -0.56696,-5.68 -2.92174,-9.67653 -5.94783,-10.09739 -15.65218,-18.02434 -27.61044,-22.57043 -4.42782,-1.68348 -8.59826,-5.1687 -8.59826,-7.18261 0,-2.06956 0.97044,-1.84348 10.34783,2.43478 11.88869,5.41913 31.33565,12.45566 35.26608,12.76522 1.81566,0.13913 6.4487,0.56696 10.29218,0.94609 8.12869,0.8 28.14261,2.06956 32.69913,2.06956 1.72174,0 3.70435,-0.78261 4.40696,-1.73913 0.7513,-1.02956 6.03826,-2.86956 12.87304,-4.48695 6.38261,-1.50609 15.2,-4.13913 19.6,-5.84348 6.61913,-2.57391 7.87478,-2.79652 7.28696,-1.30783 -0.38957,0.99131 -0.97392,5.2 -1.29392,9.35652 -0.52174,6.72 -0.27826,8.15653 2.21913,12.90435 1.54435,2.93913 6.14957,8.93913 10.23305,13.33913 l 7.42261,8 0.7826,-13.6 c 0.43131,-7.48174 0.48696,-14.79652 0.12174,-16.25043 -0.90434,-3.60348 -5.54434,-8.92174 -10.52174,-12.06261 -2.26434,-1.43304 -4.10087,-2.95652 -4.07652,-3.39478 0.0243,-0.43826 6.34783,-3.92 14.0487,-7.74261 12.11826,-6.01392 32.00348,-19.28696 34.53913,-23.05739 1.40174,-2.08 0.87304,0.45217 -0.74435,3.5826 -0.86609,1.66957 -3.61443,2.51413 -4.87704,2.84805 -1.26957,0.33043 -4.29534,1.09565 -3.92317,1.70434 0.37565,0.60174 4.57412,1.69457 5.2976,1.46501 0.72,-0.22957 5.6487,-1.70783 10.94957,-3.28348 12.04522,-3.57565 24.82435,-9.93044 29.45043,-14.64348 5.36696,-5.47131 15.32522,-22.64348 13.93739,-24.03478 -0.67826,-0.67826 -19.7913,2.12174 -22.92521,3.35304 -1.66957,0.66087 -1.35652,-0.10435 1.37739,-3.39826 16.68869,-20.07304 30.21565,-41.11304 33.84348,-52.62609 l 2.36521,-7.52696 0.77566,11.82609 c 0.92869,14.15652 1.96174,18.03826 7.48869,28.11478 3.93044,7.15827 12.01392,17.57914 13.64174,17.58261 1.15478,0 0.23652,-29.13391 -1.07826,-34.18087 -0.94261,-3.6313 -2.68174,-5.91304 -8.1913,-10.74782 -3.84348,-3.37739 -8.12522,-7.93739 -9.51305,-10.13218 -2.47652,-3.92695 -2.49043,-4.10434 -0.82782,-10.58782 1.40521,-5.49565 1.59652,-11.46435 1.14087,-35.79131 -0.29913,-16.05217 -0.88348,-31.06435 -1.2974,-33.35652 -0.5913,-3.28348 -0.43826,-4.06261 0.73044,-3.67652 1.77391,0.5913 2.44174,2.76522 4.70261,15.36696 1.00869,5.63478 2.83826,11.56521 4.37913,14.20173 2.33739,4 23.60348,22.89044 25.76696,22.89044 1.43652,0 -0.37566,-10.1287 -3.37044,-18.84522 -4.55652,-13.27304 -8.8487,-19.03652 -19.25217,-25.84348 -2.95653,-1.93739 -6.74783,-5.00869 -8.42435,-6.8313 -1.67652,-1.81913 -3.65218,-3.3113 -4.38261,-3.3113 -0.8,0 -1.86783,-2.88696 -2.66087,-7.18261 -0.72696,-3.95131 -2.69565,-11.45044 -4.37217,-16.66087 -1.67653,-5.21739 -2.77566,-9.48522 -2.43826,-9.48522 0.33391,0 3.89565,3.56869 7.91652,7.93043 8.70608,9.45044 15.89217,14.29566 24.9113,16.81044 3.65913,1.01913 7.49913,2.21217 8.53218,2.64696 3.45391,1.46086 2.07304,-2.27827 -3.64174,-9.85044 -12.11826,-16.06261 -16.61913,-19.0713 -26.7374,-17.87478 -7.45043,0.88348 -12.12173,-2.14261 -14,-9.07131 -2.13913,-7.88521 -5.51304,-13.88869 -14.04521,-24.99478 -17.04348,-22.191304 -34.9287,-37.68 -62.17392,-53.857391 -11.56174,-6.862609 -8.36869,-6.991305 13.89218,-0.573913 12.9113,3.721739 23.6,6.055652 27.72869,6.052174 3.17913,0 17.19653,-2.483479 21.99653,-3.895653 3.42608,-1.008695 1.97913,-2.306087 -8.06261,-7.23826 -21.02957,-10.326957 -29.28696,-11.422609 -44.62261,-5.923479 -12.54261,4.50087 -23.07826,5.648696 -27.58957,3.001739 -2.72695,-1.6 -21.66956,-8.191304 -39.33217,-13.693913 -3.01565,-0.93913 -1.41218,-1.053913 8.06261,-0.584348 13.70434,0.685218 18.72695,-0.723478 30.30261,-8.486956 6.88695,-4.626087 7.64173,-6.32 2.68521,-6.052174 -1.58608,0.08348 -7.0713,-0.215652 -12.18782,-0.667826 -5.11305,-0.452174 -10.97392,-0.504348 -13.01913,-0.121739 -2.10435,0.393043 -7.75653,3.707826 -13.02261,7.634782 -8.20522,6.118261 -9.71479,6.859131 -12.78261,6.278261 -1.91304,-0.361739 -3.96522,-1.008695 -4.55652,-1.436522 -1.93392,-1.401739 -13.27305,-2.006956 -19.60348,-1.043478 -3.4087,0.514783 -10.54957,1.68 -15.87478,2.587826 -12,2.045218 -15.36348,2.041739 -9.77392,-0.0035 6.02783,-2.208696 10.35826,-5.822609 19.47826,-16.253913 7.43305,-8.5043481 9.28348,-11.3043481 7.23131,-10.94260896 -0.44522,0.07652174 -4.18087,0.53217392 -8.30261,1.00869566 m -8.29565,4.1426087 c -7.39479,2.8904348 -12.21913,6.1495656 -15.73566,10.6226086 -2.99826,3.815652 -6.64347,10.132174 -6.64347,11.513044 0,1.113043 5.47478,-3.165218 13.98956,-10.932174 4.43826,-4.048696 9.76,-8.6886959 11.82609,-10.3060873 4.36174,-3.4226087 3.55826,-3.6313043 -3.43652,-0.8973913 m 4.39652,3.5026088 C 206.95586,12.774928 191.895,25.741885 191.3976,26.945363 c -0.99478,2.410435 12.89044,-5.335652 17.33218,-9.669565 4.31304,-4.208696 10.12869,-12.0139136 8.94609,-12.0139136 -0.18783,0 -2.46957,1.5408696 -5.06783,3.4226088 m 56.81739,8.6399998 c -2.21565,1.286957 -4.0313,2.671305 -4.0313,3.085218 0,0.413913 1.81565,0.354782 4.03478,-0.132174 4.01618,-0.810552 8.0483,-1.539976 12.09391,-2.187826 5.91305,-0.96 7.4887,-1.533913 5.91305,-2.156522 -4.46261,-1.756522 -13.82609,-1.033044 -18.01044,1.391304 M 156.74021,18.61145 c -5.41565,3.165217 -10.22956,7.252174 -11.52,9.763478 -1.2313,2.4 -2.92869,12.365218 -2.10782,12.365218 0.28869,0 3.07826,-3.749566 6.19826,-8.333914 3.12,-4.580869 7.13739,-9.895652 8.93217,-11.808695 4.01044,-4.281739 3.52,-4.932174 -1.50261,-1.989565 m 3.66261,3.046956 c -3.82609,4.083478 -12.63304,16.615652 -13.62087,19.377392 -1.90609,5.356521 7.81218,-4.184348 12.57739,-12.347827 2.56696,-4.4 5.25566,-10.521739 4.61913,-10.521739 -0.16347,0 -1.77391,1.572174 -3.57565,3.492174 m 118.72348,-0.88 c -6.93565,1.297391 -12.90435,2.650435 -13.26261,3.012174 -0.35826,0.358261 0.42783,1.227826 1.74609,1.933913 3.59304,1.923478 11.89565,0.695652 18.74435,-2.765217 5.50261,-2.782609 8.45913,-4.991305 6.25043,-4.664348 -0.47652,0.06956 -6.54261,1.186087 -13.47826,2.483478 m -33.86783,8.883478 c 1.04348,0.274783 2.4974,0.253913 3.22435,-0.03826 0.73044,-0.295653 -0.12869,-0.52174 -1.90261,-0.497392 -1.77391,0.02087 -2.36869,0.26087 -1.32174,0.535652 m -35.23478,1.071305 c -8.92174,1.161739 -20.18087,4.156522 -27.41217,7.290435 -5.07826,2.201739 -10.16348,4.382608 -15.25566,6.546087 -3.95478,1.673043 -6.94956,3.433043 -6.65739,3.909565 1.0087,1.624348 9.73913,0.869565 16.09739,-1.394783 8.62609,-3.071304 16.85566,-3.050435 23.01566,0.06261 4.8313,2.441739 26.1113,23.408696 25.22087,24.848696 -0.66087,1.064348 -9.31131,0.04869 -19.5687,-2.299131 -10.15652,-2.330434 -17.22783,-5.624348 -27.13391,-12.650435 -6.06609,-4.302608 -7.93044,-5.043478 -14.4,-5.735652 -9.26609,-0.987826 -10.43826,-0.521739 -29.47131,11.721739 -10.97739,7.064348 -17.32869,12.104348 -25.34608,20.12174 -5.88522,5.881739 -10.149569,10.88 -9.478265,11.102609 0.671305,0.222608 4.497395,-0.918261 8.500865,-2.539131 9.44696,-3.826087 21.6,-4.64 31.32522,-2.104348 8.84522,2.306087 18.42087,5.895652 18.42087,6.907826 0,1.62087 -20.16348,9.624352 -27.41565,10.880002 -9.73217,1.68695 -18.65391,0.18435 -23.89565,-4.02435 l -6.18435,-4.973912 c -1.373914,-1.106087 -3.071305,-1.655653 -3.773914,-1.22087 -2.476522,1.530435 -23.182609,30.180872 -26.365217,36.476522 -1.766957,3.49913 -4.031305,7.22087 -5.033044,8.26783 -1.73913,1.81913 -6.243478,14.60869 -6.243478,17.71826 0,0.81739 -1.526957,6.21217 -3.391305,11.98261 -1.986087,6.13913 -3.700869,14.20173 -4.132174,19.42608 l -0.737391,8.93218 4.939131,4.89739 c 2.713043,2.69565 7.467826,6.33739 10.563478,8.09739 10.198261,5.79478 19.036522,18.0313 21.676522,30.01043 0.570435,2.59479 1.373913,8.22261 1.787826,12.51131 0.646956,6.71304 0.514783,7.7913 -0.953044,7.7913 -0.93913,0 -7.026087,-5.2 -13.530434,-11.55478 -13.384348,-13.08522 -15.610435,-16.93913 -17.314783,-29.97565 -0.608696,-4.65392 -1.321739,-9.44 -1.579131,-10.63305 -0.584347,-2.7026 -4.671304,-7.20695 -5.867826,-6.46956 -1.888695,1.16869 -1.224348,19.24174 1.008696,27.45739 1.203478,4.43478 3.366956,13.38435 4.8,19.8887 4.838261,21.91304 7.617391,28.50434 21.412174,50.76869 7.753044,12.52174 11.210435,14.47652 25.937394,14.67826 8.4,0.11826 10.31652,0.51479 14.53913,2.99479 5.37043,3.15826 19.25217,18.04174 16.98782,18.21565 -7.86782,0.60174 -23.17565,-3.34957 -29.12695,-7.52 -2.50435,-1.75305 -7.116524,-5.64174 -10.250437,-8.64 -3.133913,-2.99826 -6.483479,-5.45044 -7.443479,-5.45044 -3.234782,0 26.250436,29.70435 33.033046,33.27305 2.06956,1.08869 6.62261,4.20174 10.11826,6.92174 3.88174,3.01565 6.81043,4.58782 7.52696,4.03826 0.64347,-0.49044 3.52695,-1.53392 6.41043,-2.31652 4.32696,-1.1687 6.66435,-2.89392 13.34261,-9.84348 5.26956,-5.48522 10.20174,-9.46087 14.1113,-11.38435 5.41566,-2.65739 6.91131,-2.91131 15.14783,-2.55304 5.02609,0.21913 11.68,0.4626 14.78261,0.53913 3.36,0.08 5.64522,0.62608 5.64522,1.33913 0,1.9513 -16.65044,17.28 -21.6974,19.97217 -4.24,2.26435 -6.04173,2.48348 -20.76869,2.5287 -15.2,0.0487 -21.53739,1.02608 -24.60522,3.7913 -2.25391,2.0313 23.69391,16.25391 32.17391,17.63478 9.90609,1.61739 15.36348,3.22435 21.11653,6.22609 5.53739,2.89391 7.24869,3.22435 18.27826,3.54783 10.62608,0.31304 11.30435,0.24 5.36695,-0.60522 -9.14782,-1.29739 -14.9913,-4.32348 -24.44174,-12.66435 -7.49565,-6.61913 -9.26608,-9.72869 -4.70956,-8.28174 1.12,0.35478 6.94609,0.0731 12.94609,-0.62608 15.86434,-1.84348 17.48174,-1.17914 26.44174,10.86608 8.36521,11.24522 7.72174,11.06087 24.25739,6.86957 13.18956,-3.33913 18,-5.26261 18,-7.18609 0,-0.8 4.35478,-5.73217 9.67652,-10.96 5.32174,-5.2313 9.67652,-10.05565 9.67652,-10.72348 0,-0.6713 0.50783,-5.32174 1.13044,-10.33043 1.32869,-10.70261 4.37217,-17.94435 11.68,-27.80522 2.89739,-3.90957 5.87826,-8.45217 6.62608,-10.09044 0.75131,-1.64173 1.87826,-2.81391 2.50435,-2.60521 0.62957,0.20869 2.01044,4.45565 3.06783,9.43652 2.16348,10.20174 1.76348,17.45391 -1.30087,23.45391 -2.09739,4.10435 -12.03826,14.05913 -18.33044,18.35478 -4.73043,3.22783 -20.4313,18.72696 -20.4313,20.17392 0,0.5913 5.2,-0.85913 11.55826,-3.22087 20.54609,-7.63478 45.96522,-26.62957 64.51478,-48.2087 11.97218,-13.92695 25.54783,-33.30782 31.1687,-44.50435 2.6713,-5.32173 6.53913,-12.31304 8.60174,-15.53391 7.15826,-11.2 9.99304,-24.35478 9.85391,-45.74956 l -0.087,-13.97566 -2.07304,4.50783 c -1.14087,2.48 -2.80696,8.71652 -3.70435,13.85739 -1.92,11.01217 -7.06087,24.01044 -11.48869,29.05391 -3.23479,3.68696 -32.66087,19.48522 -33.92696,18.21566 -0.36174,-0.36174 0.11478,-1.97218 1.05739,-3.58261 0.93913,-1.60348 3.01913,-6.78957 4.61913,-11.52 6.50435,-19.23479 14.09739,-28.57392 30.98087,-38.10435 8.11826,-4.57739 10.14957,-6.88 12.14957,-13.76 1.48174,-5.10261 1.48174,-7.32174 -0.0139,-22.06261 -2.20521,-21.78435 -7.47826,-41.85391 -13.67304,-52.03478 -6.71652,-11.03652 -11.9513,-18.75131 -12.41043,-18.29218 -0.22609,0.22609 1.6,5.92348 4.06608,12.66087 4.00696,10.97392 4.48696,13.32174 4.59131,22.46609 l 0.11826,10.21217 -6.20174,12.11131 c -6.11131,11.94435 -12.59826,20.68174 -15.34957,20.68174 -2.03826,0 -3.06087,-10.22609 -2.29217,-22.86957 0.69565,-11.48522 1.93391,-14.89739 10.38609,-28.67478 6.26782,-10.21565 6.49043,-11.29739 4.06956,-19.95478 -3.77739,-13.49566 -5.01565,-15.98957 -13.21739,-26.608698 C 349.57847,81.773189 340.98717,74.020146 326.50717,64.406233 316.855,57.995798 293.5263,45.578407 292.69847,46.409711 c -1.16173,1.158261 1.26609,4.163478 7.2,8.921739 8.30957,6.664348 13.03653,12.532174 17.8887,22.191305 3.65217,7.276521 3.96522,8.64 4.31304,19.123478 0.44174,13.419127 -0.62608,16.233047 -4.30956,11.314787 -2.07683,-2.68688 -4.2284,-5.31516 -6.45218,-7.88174 -5.43304,-6.278264 -12.3026,-16.490438 -14.81739,-22.031308 -1.54087,-3.391304 -2.05565,-7.015652 -2.07304,-14.539131 l -0.0243,-10.017391 -4.55652,-5.408696 c -4.95304,-5.871304 -8.89739,-8.417391 -13.04348,-8.417391 -1.46087,0 -7.65217,-1.186087 -13.76,-2.636522 -11.36,-2.69913 -27.98609,-4.890435 -37.07478,-4.890435 -4.70261,0 -4.9287,0.118261 -2.99826,1.579131 1.17913,0.890435 4.45913,1.593043 7.53739,1.613913 2.99478,0.01739 8.07652,0.810435 11.28696,1.76 4.88,1.443478 7.12,3.057391 13.63478,9.81913 8.09739,8.403479 9.65565,11.467827 5.37739,10.556522 -1.33217,-0.281739 -5.32174,-1.067826 -8.86957,-1.73913 -8.9113,-1.697391 -16.25739,-5.937392 -21.28347,-12.292174 -2.33392,-2.956522 -6.24348,-6.535652 -8.68522,-7.954783 -2.43826,-1.422609 -5.2,-3.241739 -6.13565,-4.038261 -0.93218,-0.8 -1.89913,-1.380869 -2.14957,-1.293913 -0.25043,0.09043 -1.90261,0.347826 -3.67652,0.58087 m 27.06087,10.361739 c 3.21391,2.643478 17.57913,9.65913 18.30261,8.93913 0.98435,-0.987826 -9.94783,-9.356521 -13.51652,-10.347826 -6.79305,-1.885217 -8.26087,-1.453913 -4.78261,1.408696 m 92.59478,-0.8 c -10.43478,3.213913 -7.28348,4.21913 16.34435,5.217391 7.3913,0.313044 15.09913,1.050435 17.13043,1.645218 6.00696,1.749565 5.0087,0.417391 -1.20347,-1.606957 -3.14087,-1.026087 -6.29218,-2.323478 -6.99827,-2.88 -1.9826,-1.565217 -12.25739,-4.05913 -16.45217,-3.989565 -2.07304,0.03478 -6.03826,0.761739 -8.82087,1.617391 m -95.4713,3.819131 c 0,2.852174 17.09217,11.074782 19.01565,9.147826 0.26435,-0.26087 -3.90609,-2.633044 -9.26957,-5.269565 -5.35652,-2.636522 -9.74608,-4.382609 -9.74608,-3.878261 m 91.15826,3.186087 c 4.56695,4.010434 33.52695,7.902608 41.97565,5.641739 4.53217,-1.213913 -7.77391,-4.664348 -16.97739,-4.765218 -5.65209,-0.103891 -11.29982,-0.376476 -16.93565,-0.817391 -4.85566,-0.403478 -8.48696,-0.431304 -8.06261,-0.05913 m -143.5687,0.650434 c -4.17391,0.8 -2.6713,2.08 4.83478,4.10087 6.69566,1.801739 18.01044,7.088696 27.12348,12.674783 l 3.73565,2.292174 -2.32,-3.262609 c -3.47831,-4.883478 -11.367,-11.826087 -16.29222,-14.337391 -4.16,-2.12174 -10.74783,-2.688696 -17.08174,-1.467827 m 186.80348,0.737392 c 0,0.233043 0.7513,0.709565 1.66957,1.064348 0.95652,0.365217 1.38782,0.184347 1.00869,-0.424348 -0.62609,-1.022609 -2.67826,-1.509565 -2.67826,-0.64 m -186.53565,7.73913 c 6.94261,5.766957 27.3113,13.554783 31.65217,12.104348 1.78783,-0.591304 -14.08,-9.554782 -20.82783,-11.763478 -2.99478,-0.98087 -7.38434,-2.062609 -9.74956,-2.4 l -4.29913,-0.619131 z M 297.015,63.860146 c -1.79131,7.130435 3.87826,20.114783 13.37739,30.650435 l 4.3513,4.824348 -1.14782,-4.302609 c -2.33044,-8.765217 -12.62609,-31.94087 -14.78261,-33.273044 -0.60522,-0.372174 -1.41566,0.573913 -1.79826,2.10087 m 6.01043,-1.293913 c 0,0.358261 1.98609,5.151304 4.41391,10.646956 6.23305,14.111305 10.62609,25.704348 10.70609,28.243481 0.0591,1.88522 0.21565,1.81913 1.17218,-0.50783 3.40521,-8.29565 -4.26087,-28.678259 -13.91305,-36.991303 -1.3113,-1.126956 -2.37913,-1.753043 -2.37913,-1.391304 M 84.774994,70.183624 c 0,1.495652 -4.518261,17.648696 -6.020869,21.530435 -1.412174,3.652174 1.586087,0.803478 3.871304,-3.669565 2.027826,-3.975652 4.281739,-19.349566 2.841739,-19.349566 -0.382608,0 -0.695652,0.671305 -0.695652,1.492174 m -7.106087,6.525218 c -1.896889,4.20745 -3.00399,8.727819 -3.266087,13.335652 l -0.427826,7.137391 2.612174,-7.290434 c 3.269565,-9.123479 5.408696,-17.892174 4.563478,-18.733914 -0.354782,-0.354782 -1.92,2.142609 -3.478261,5.551305 m 291.582613,0.06956 c -3.06783,0.845217 -7.44696,1.189565 -10.48348,0.831304 -3.54435,-0.420869 -5.21043,-0.226087 -5.21043,0.605218 0,0.674782 1.32869,1.227826 2.95652,1.231304 3.46435,0.0035 7.65217,2.406957 15.88174,9.106087 10.24695,8.347826 11.97217,8.890435 29.54434,9.321739 9.49566,0.229566 15.58609,-0.02435 15.58609,-0.653913 0,-1.766956 -19.0713,-16.8 -24.73043,-19.49913 -6.18783,-2.946087 -14.95653,-3.297392 -23.54435,-0.939131 m 3.65565,1.773913 -2.68522,1.130435 2.68522,0.869565 c 1.47826,0.48 5.46087,1.182609 8.85217,1.565218 4.12522,0.466087 9.8087,2.452174 17.2,6.006956 l 11.04001,5.311305 -5.37392,-4.852174 c -7.78435,-7.026087 -16.77565,-11.311305 -23.55826,-11.227826 -3.00869,0.03478 -6.67826,0.577391 -8.16,1.196521 m 1.58609,8.386087 c 8.46261,7.325218 12.25739,8.758261 22.23652,8.4 l 8.6887,-0.313043 -8.6887,-4.61913 c -5.68696,-3.026087 -11.02261,-4.98087 -15.44696,-5.655653 -3.72174,-0.566956 -7.90608,-1.293913 -9.30782,-1.613913 -1.98609,-0.452174 -1.44,0.379131 2.51826,3.801739 m -259.4574,5.193044 c -2.57391,1.005217 -4.62608,2.306087 -4.55652,2.897391 0.0765,0.671305 7.16522,1.078261 18.85218,1.078261 10.30608,0 18.40347,-0.32 18,-0.709565 -0.40696,-0.386087 -4.17739,-1.714783 -8.38261,-2.956522 -9.12696,-2.685217 -17.53044,-2.796522 -23.91305,-0.309565 m 1.45392,7.123478 -10.75131,1.21739 4.52522,2.38608 c 6.84522,3.60696 19.33913,3.36348 29.46783,-0.57043 l 7.60695,-2.956518 -4.13565,-0.744348 c -5.56522,-1.001739 -13.7913,-0.796522 -26.71304,0.667826 m -75.259134,27.84348 c -5.808696,2.27826 -9.617391,4.77566 -13.44,8.82087 -3.523478,3.72174 -3.593043,3.92696 -1.074783,3.17913 1.841898,-0.58328 3.639074,-1.29936 5.377392,-2.1426 1.478261,-0.74087 6.8,-2.62609 11.826087,-4.18783 5.026087,-1.56174 10.831304,-3.77739 12.900869,-4.92174 l 3.763479,-2.08696 -8.062609,0.0383 c -4.438261,0.0209 -9.516522,0.60522 -11.290435,1.30087 m 1.613913,8.67479 c -5.617391,1.96174 -12.149565,4.48 -14.514783,5.6 l -4.302608,2.03478 5.377391,0.36174 c 9.182609,0.61217 15.965218,-1.52 21.746087,-6.83826 2.859131,-2.62957 4.417392,-4.72348 3.52,-4.72348 -0.886956,0 -6.208695,1.60696 -11.826087,3.56522 m 332.215651,1.24174 c 0.003,1.1513 -0.94608,5.48173 -2.10434,9.62087 -1.84433,6.78632 -3.601,13.59616 -5.26957,20.42782 -1.73913,7.09565 -3.49565,13.87131 -3.90609,15.05391 -1.53739,4.4174 3.60348,-3.1513 8.72,-12.84173 6.06609,-11.49566 7.09218,-16.07305 5.66609,-25.32522 -1.04348,-6.75478 -3.11304,-11.38087 -3.10609,-6.93565 m -6.1913,6.04521 c -2.80348,5.16174 -2.6087,6.02435 0.75478,3.30435 1.65565,-1.34261 2.28522,-2.84174 2.03479,-4.85565 -0.35479,-2.83826 -0.42435,-2.79652 -2.78609,1.5513 m 33.06435,-0.69565 c 0,0.30957 1.20347,1.01913 2.67478,1.57913 2.94956,1.12348 15.13739,9.13391 20.88696,13.73218 3.39826,2.71652 3.57565,2.75826 2.3826,0.52173 -0.70956,-1.33565 -1.78782,-2.42087 -2.39304,-2.42087 -0.60522,0 -0.78261,-0.51478 -0.39652,-1.13739 0.38261,-0.62608 -1.93044,-3.77043 -5.14783,-6.9913 -5.70434,-5.70435 -6.00348,-5.85044 -11.93043,-5.85044 -3.33913,0 -6.07652,0.25392 -6.07652,0.56696 M 66.531516,146.9141 c 0.132174,15.12696 4.10087,26.71304 11.885217,34.70609 7.54087,7.73913 20.333914,15.45043 20.333914,12.25391 0,-0.33391 -1.231305,-5.46435 -2.737392,-11.39826 -4.166956,-16.4487 -5.766956,-19.12 -16.678261,-27.81565 -5.224348,-4.17044 -9.801739,-8.52174 -10.166956,-9.68 -1.113044,-3.49913 -2.674783,-2.35479 -2.636522,1.93391 m 340.838264,4.09739 c 4.12174,4.26435 14.36522,10.53565 16.20174,9.92348 2.24,-0.74783 -15.56522,-13.69739 -18.88696,-13.73913 -0.56348,-0.0104 0.64696,1.7113 2.68522,3.81565 m -43.92,0.81739 c -2.88696,3.12348 -5.05391,16.75478 -3.98609,25.10609 0.70261,5.50956 0.92174,5.94087 1.81565,3.57565 1.43305,-3.7913 5.85044,-21.26609 6.56696,-25.98956 0.73739,-4.8487 -1.27304,-6.07653 -4.39652,-2.69218 m -290.139134,2.6087 c 9.259131,15.23826 11.464348,19.10956 11.464348,20.12869 0,0.67131 2.173913,4.31305 4.834783,8.09392 5.217391,7.41217 5.902609,6.77217 3.276522,-3.08522 -2.751305,-10.34435 -6.601739,-16.75478 -12.932174,-21.53044 -5.565218,-4.20521 -7.718261,-5.37391 -6.643479,-3.60695 m -3.23826,4.57043 c 1.690434,12.06957 5.791304,18.99131 15.238261,25.7287 4.692173,3.34261 5.137391,3.48869 3.492173,1.14782 -1.033043,-1.47826 -3.589565,-5.96869 -5.673043,-9.97913 -2.086957,-4.01043 -6.031304,-10.53913 -8.765218,-14.51478 l -4.973913,-7.22087 z m -40.080001,19.44 c -3.227826,1.14435 -7.252174,3.4087 -8.946087,5.02609 -3.676522,3.51652 -13.0086956,17.41913 -12.2260869,18.20522 0.3060869,0.30261 2.8834779,-1.59305 5.7321739,-4.21565 2.845217,-2.62261 8.803478,-7.44 13.238261,-10.70261 4.434783,-3.26261 8.984348,-6.97392 10.111304,-8.24348 2.017392,-2.26783 2.017392,-2.30609 0,-2.22609 -1.126956,0.0383 -4.685217,1.0087 -7.909565,2.15652 m 0.354783,9.35652 c -12.337392,9.07827 -20.9634787,16.88348 -17.422609,15.76348 10.10087,-3.2 20.754783,-11.29391 25.547826,-19.41913 1.182609,-2.00348 2.041739,-3.62087 1.913044,-3.60348 -0.125218,0.0209 -4.643479,3.28696 -10.038261,7.25913 m 379.568702,3.03653 c 1.22434,8.66087 5.35652,15.82608 12.64348,21.91652 6.85913,5.72869 8.48695,6.22261 6.08695,1.84348 -1.34334,-2.44471 -2.68363,-4.89108 -4.02087,-7.33913 -3.37739,-6.17392 -12.87652,-20.09044 -14.32,-20.98087 -0.77217,-0.47653 -0.89391,0.98087 -0.38956,4.55652 m 5.11304,-3.86783 c 0.34087,0.88 3.22087,5.78435 6.4,10.89044 3.17217,5.10956 7.37391,11.88521 9.32522,15.05391 3.54087,5.73913 3.5513,5.74609 2.93913,1.88522 -0.93218,-5.86087 -5.63478,-17.14783 -8.3687,-20.07652 -3.88521,-4.16696 -10.97391,-9.50609 -10.29565,-7.75305 m -354.504351,35.2 c 1.029566,10.28174 4.608696,17.00174 13.544348,25.43305 4.139131,3.89913 8,7.09217 8.58087,7.09217 1.373913,0 -13.172174,-28.01043 -18.006957,-34.67478 -2.038261,-2.80696 -3.965217,-5.10609 -4.278261,-5.10609 -0.313043,0 -0.243478,3.26609 0.156522,7.25913 m 6.886957,-2.81043 c 1.297391,1.98608 6.024348,10.53913 10.511304,19.00174 4.486957,8.4626 8.285218,15.23478 8.441739,15.05043 0.156522,-0.18435 -0.08,-3.30435 -0.521739,-6.93913 -1.426087,-11.73565 -9.328696,-24.80696 -17.565217,-29.06435 l -3.217392,-1.66609 z m -37.064348,5.06087 c -5.662609,4.10434 -7.624348,7.34608 -9.600001,15.86434 -2.309565,9.94783 -1.55826,11.79479 1.923479,4.72348 1.6,-3.24869 5.09913,-9.73913 7.780869,-14.42087 2.678261,-4.68174 4.706087,-8.67478 4.504348,-8.87652 -0.198261,-0.19826 -2.274782,1.01913 -4.608695,2.71304 m 5.297391,2.58087 c -5.453913,7.62435 -15.182609,28.23305 -13.923479,29.49566 0.619131,0.61913 7.050435,-6.19827 10.323479,-10.94957 4.034782,-5.85391 9.846956,-23.11304 7.784348,-23.11304 -0.504348,0 -2.386087,2.05565 -4.184348,4.56695 m 346.946089,-2.41043 c -5.46087,2.84174 -12.43826,9.14782 -16.24348,14.67826 -3.02608,4.4 -11.03652,22.90087 -10.25391,23.68348 1.03652,1.03652 16.09739,-16.48696 20.03478,-23.31826 2.55652,-4.43479 6.08348,-9.89913 7.83652,-12.14261 1.75305,-2.24696 3.00522,-4.25739 2.78957,-4.46957 -0.21913,-0.21217 -2.09391,0.49392 -4.16348,1.5687 m 5.30435,2.92522 c -1.93391,2.20521 -6.17391,8.13217 -9.41913,13.17217 -3.24522,5.03652 -8.70957,12.27826 -12.14609,16.09739 -3.43304,3.81218 -6.04522,7.13044 -5.80174,7.37391 0.24348,0.24348 4.56696,-1.5513 9.60696,-3.98956 10.69565,-5.17565 13.53043,-8.26087 17.96174,-19.52 2.97043,-7.54783 5.14782,-17.14087 3.89217,-17.14087 -0.31304,0 -2.15652,1.80174 -4.09391,4.00696 m 16.21565,46.23304 c -0.0174,7.3113 1.53044,12.08 7.41913,22.86957 2.55305,4.6713 3.94087,6.34782 4.19131,5.06086 0.5113,-2.63304 -4.93913,-22.9913 -7.40174,-27.63826 -3.91305,-7.3913 -4.19131,-7.40869 -4.2087,-0.29217 m 7.13739,1.04348 c 1.38783,2.74782 2.53565,5.75304 2.54957,6.68522 0.0139,0.93913 1.15478,5.56869 2.53217,10.29565 l 2.50783,8.59826 0.77913,-7.25218 c 1.22087,-11.43304 -0.96696,-17.52 -7.7287,-21.46086 l -3.16522,-1.84348 z M 49.52282,286.77145 c -4.330435,6.34783 -5.603478,10.71305 -5.603478,19.20348 0,8.10783 2.048695,18.55652 3.206956,16.36522 0.441739,-0.83478 1.099131,-5.21044 1.46087,-9.71826 0.361739,-4.50783 1.137391,-9.46087 1.725217,-11.00522 0.98087,-2.58783 3.433044,-19.17565 2.907826,-19.69739 -0.125217,-0.1287 -1.791304,2.05913 -3.697391,4.85217 m 4.16,11.2 c -1.405217,7.24522 -2.744348,17.04348 -2.973913,21.77392 -0.4,8.18434 -0.347826,8.43478 1.130435,5.21739 1.450435,-3.14783 6.08,-17.94087 7.523478,-24.03479 0.702609,-2.96347 -1.262609,-16.12521 -2.406956,-16.12521 -0.396522,0 -1.867826,5.92347 -3.273044,13.16869 M 304.1176,321.8671 c -6.8626,9.29044 -9.66956,16.15305 -9.68347,23.65914 l -0.0104,6.43478 2.74783,-4.04522 c 3.58261,-5.26956 13.02956,-30.49043 11.86087,-31.65913 -0.24348,-0.24348 -2.45218,2.28174 -4.91131,5.61043 m 5.03305,3.72522 c -1.95503,5.75539 -4.18129,11.41505 -6.67131,16.96 -2.07652,4.49392 -3.52,8.43131 -3.20348,8.74435 0.98087,0.98435 11.44,-9.87826 13.00522,-13.50957 1.56174,-3.62086 1.90609,-15.52695 0.55305,-18.97391 -0.59131,-1.49217 -1.53044,0.24348 -3.68348,6.78261 m -208.25392,-5.71478 c 0,0.52174 1.33218,1.52348 2.95652,2.22608 1.62435,0.69914 7.45392,3.23479 12.94957,5.63479 5.49565,2.4 10.30956,4.36521 10.69217,4.36521 1.22435,0 -6.57391,-7.5826 -9.93391,-9.66608 -3.44,-2.1287 -16.66435,-4.16348 -16.66435,-2.56 m 265.94783,1.66608 c -3.6524,0.63082 -7.05915,2.25956 -9.84348,4.70609 -4.52869,3.87478 -15.73217,19.73218 -14.68174,20.78261 0.33392,0.33391 4,-2.89043 8.14609,-7.1687 4.14609,-4.27826 11.37391,-10.24 16.06261,-13.24869 4.68869,-3.0087 8.52869,-5.66609 8.52869,-5.90261 0,-0.55652 -1.41217,-0.41391 -8.21217,0.8313 m 3.18609,5.73914 c -5.42609,3.25217 -11.71479,7.96521 -13.97913,10.46956 -2.26087,2.50435 -6.40696,6.85217 -9.21739,9.66609 -2.80348,2.81043 -4.93914,5.11304 -4.73392,5.11304 0.19826,0 2.98087,-0.90435 6.18087,-2.00348 17.29392,-5.94782 26.1287,-13.47826 31.07131,-26.48 0.56347,-1.48174 0.91478,-2.69217 0.78261,-2.69217 -0.13218,0 -4.67827,2.66782 -10.10435,5.92348 m -264.83479,0.46608 c 3.25218,2.71653 15.03652,7.58261 18.36522,7.58261 4.05565,0 -4.90435,-4.80695 -16.21217,-8.69565 l -5.91305,-2.03478 z m -22.093911,8.10435 c -0.396522,2.65739 -0.445217,5.92348 -0.104348,7.25913 0.772174,3.07478 7.078261,13.07826 7.791305,12.36522 0.789565,-0.79304 -5.126957,-24.44522 -6.114783,-24.44522 -0.466087,0 -1.172174,2.17044 -1.572174,4.82435 m 5.38087,-2.13565 c 1.074782,2.81391 2.187826,7.18261 3.76,14.78261 0.706087,3.39826 1.68,6.18087 2.166956,6.18087 1.321739,0 0.434783,-12.29218 -1.09913,-15.20696 -1.025198,-1.82816 -2.19287,-3.57269 -3.492174,-5.21739 -1.686957,-2.10087 -1.979131,-2.21913 -1.335652,-0.53913 m 91.686961,3.87478 c -6.27131,1.45044 -11.63826,4.63304 -16.85566,9.99652 l -4.77913,4.91131 3.40174,-0.97392 c 1.86783,-0.53565 3.92348,-1.29739 4.56348,-1.69739 0.64,-0.39304 6.58435,-2.06261 13.20348,-3.70782 6.62261,-1.64174 13.97565,-3.84 16.34087,-4.88348 l 4.30261,-1.89565 -3.76348,-0.80348 c -7.39131,-1.57913 -12.42435,-1.87131 -16.41391,-0.94609 m 9.42608,8.52174 c -3.54782,1.13391 -8.9913,2.5913 -12.09739,3.24174 -3.10261,0.64696 -5.64174,1.62782 -5.64174,2.17739 0,0.54957 -0.81391,0.99826 -1.80869,0.99826 -2.61566,0 -8.94261,2.43478 -8.94261,3.44348 0,1.51304 20.22956,0.97391 23.95478,-0.64696 4.27131,-1.85391 14.81739,-11.30435 12.59826,-11.29043 -0.88695,0.003 -4.51478,0.93913 -8.06261,2.07304 m -71.02608,17.46783 c -0.48696,3.68 -0.91131,12.01391 -0.93566,18.51826 -0.0522,14.01043 1.38435,17.64522 10.26087,25.96869 l 8.14609,7.63131 c 1.41913,1.32869 3.06435,2.41739 3.65217,2.41739 1.46087,0 0.16348,-15.26957 -1.84,-21.64174 -1.70087,-5.41217 -8.48695,-17.30087 -13.63478,-23.87826 -2.67478,-3.42261 -3.19652,-5.02261 -3.04348,-9.33565 0.27131,-7.66261 -1.56521,-7.43652 -2.60174,0.32 m 89.83653,6.87652 c -5.3287,0.56 -8.93913,1.44696 -8.34435,2.04522 0.28174,0.27826 4.09043,1.49565 8.45913,2.69913 4.37217,1.20348 10.48348,3.61391 13.57565,5.34956 3.09565,1.73913 5.87826,3.16174 6.18087,3.16174 0.72348,0 -6.60869,-10.19826 -8.32696,-11.58261 -1.76347,-1.41913 -6.88695,-2.16348 -11.54434,-1.66956 m -89.15131,11.63826 c -0.073,10.12174 2.60522,17.04696 8.92174,23.06087 4.31304,4.10087 4.92174,3.64174 1.89565,-1.42957 -1.09913,-1.84348 -3.56869,-8.43478 -5.48869,-14.64348 -5.10957,-16.5113 -5.25913,-16.70956 -5.3287,-6.98782 m 5.29044,-2.44522 c 0,5.81218 9.38087,28.78609 11.75652,28.78609 0.43478,0 0.39304,-2.91131 -0.0939,-6.46957 -0.90782,-6.63652 -2.83478,-11.21043 -8.45217,-20.06956 -2.88696,-4.55652 -3.21043,-4.77913 -3.21043,-2.24696 m 75.22782,0.26087 c 2.48348,2.64348 9.01913,5.23826 16.16,6.41739 l 3.76348,0.61913 -3.22782,-1.54087 c -6.58783,-3.14434 -18.00001,-8.14956 -18.58435,-8.14956 -0.33392,0 0.51826,1.19304 1.88869,2.65391 m 8.09392,-1.04348 c 9.85043,4.58087 16.78956,7.22435 17.38782,6.62957 0.92522,-0.9287 -12.20869,-6.8 -16.84869,-7.53392 l -3.76348,-0.5913 z m 81.17565,7.17565 c 0,0.84522 0.48696,2.02783 1.09217,2.62957 0.59826,0.59826 2.45913,6.57391 4.13565,13.28 1.66957,6.70261 3.30435,11.74957 3.62087,11.21739 0.32,-0.53565 0.8974,-4.35826 1.28696,-8.49739 0.57044,-6.10783 0.33739,-8.21565 -1.22435,-11.19652 -2.25391,-4.29913 -8.9113,-9.85044 -8.9113,-7.43305 m -5.32522,2.36522 c -0.68439,1.98349 -1.06435,4.05921 -1.12696,6.15652 0,4.16348 4.29914,12.50087 8.50087,16.49044 3.02261,2.86956 3.32522,2.96 3.32522,0.97391 0,-1.2 -0.96695,-4.99478 -2.14956,-8.4313 -1.18261,-3.43652 -2.16696,-7.01913 -2.18435,-7.96522 -0.0174,-0.93913 -1.20348,-3.61739 -2.63652,-5.94783 l -2.60174,-4.23652 z m -125.41913,1.30087 c 0.35826,0.93913 0.65043,2.53913 0.65043,3.55826 0,2.94261 5.80522,8.11131 13.86087,12.34783 4.08,2.14261 7.74957,3.89565 8.15305,3.89565 1.39826,0 -7.09565,-9.16869 -14.19131,-15.31826 -7.23478,-6.27478 -9.65217,-7.55478 -8.47304,-4.48348 m 16.2087,7.85044 c 6.37217,6.52869 8.58782,8.30261 5.86434,4.69565 -3.0713,-4.06957 -8.09043,-9.10261 -10.13217,-10.15652 -1.18261,-0.61218 0.73739,1.84348 4.26783,5.46087"
     style="stroke-width:3.47826;fill:#eff0ee;fill-opacity:1"
     id="path1"
     sodipodi:nodetypes="cccccccscsccccccccsccccccccccccccsccccccccccccccccccccccsscccccscccccccsccscccscccccccccccscccccccccccccccccccccccccscccsccscccccccccccccscccccccccccccccccsccccccsccsccccccsccccccscccccccccccccccccccccccsccsccccccscscccccscccccccccccssccccccccsccccccccccccscscscccccsccccccccccccccccsccccscccccccccccccccscscccccccccccccccccccccccccccccccccccccccccccccccccccccccccccccccscccccccccscccsccccccccccccccccccccsccccccccccccccscccccccccsccccccccccccccccsccscccsccccccccccccccscccccccccccccccsccccccccccccccccccccccscsccssccccccccsccccscccscccccccsccscccccccccccccccscscccccccscccccscccccccccssccccssssccccsccsccsccccccscccscccccccccccccccssscccccccsccccccccsccccccccscccccccsccccccccccccccccsscccccscscccccc" />
</svg>
