<svg xmlns="http://www.w3.org/2000/svg" width="438.501" height="424.973" viewBox="0 0 438.501 424.973">
  <path fill-rule="evenodd" d="M216.507 1.04c-15.363 1.777-24.668 9.018-32.695 25.446a1246 1246 0 0 1-4.258 8.647c-.39.762-6.163 3.729-12.835 6.598-6.667 2.873-13.927 6.407-16.125 7.858-11.687 7.704-11.638 5.944.181-6.692 6.487-6.933 10.487-12.442 14.247-19.604 6.191-11.809 6.466-12.654 4.122-12.654-3.002 0-18.912 8.797-22.623 12.508-4.122 4.125-5.843 10.7-5.843 22.355 0 8.511-.61 9.635-5.917 10.873-5.673 1.322-11.78 5.534-22.87 15.77-12.434 11.479-18.699 18.846-28.525 33.538-3.843 5.75-7.21 10.059-7.485 9.579-.278-.48-.82-2.647-1.214-4.821-.63-3.506-.104-4.877 4.696-12.23 5.655-8.664 8.215-15.45 9.155-24.264l1.13-10.626c.317-2.97.132-5.374-.414-5.374-1.548 0-11.774 12.957-14.062 17.823-3.479 7.391-4.487 15.93-3.33 28.111.578 6.042 1.323 12.087 1.656 13.433 1.068 4.317-2.713 5.6-18.292 6.226-16.313.654-18.921 1.656-30.64 11.74-4.031 3.47-8.215 6.806-9.3 7.411-3.611 2.018-.314 2.873 12.58 3.26 15.694.466 19.037-.839 30.442-11.893 7.694-7.457 11.176-10.073 12.132-9.113.282.279-1.968 4.873-5.002 10.21-3.03 5.331-7.638 14.907-10.233 21.28-3.193 7.836-5.52 12.034-7.19 12.976-1.356.766-6.573 2.658-11.603 4.202-15.965 4.905-17.7 6.442-30.407 26.887-1.502 2.418-3.53 5.193-4.507 6.17-3.757 3.757-.31 3.82 9.874.181 17.145-6.128 25.705-13.45 33.45-28.615 1.583-3.103 3.563-5.858 4.394-6.129 1.127-.365 1.29.031.643 1.537-1.763 4.101-3.687 17.33-3.815 26.22L45.895 209l-5.558 4.626a234 234 0 0 1-10.383 8.104c-8.758 6.327-11.092 11.493-13.016 28.832-1.85 16.713-1.798 16.765 7.628 7.325 10.112-10.125 15.36-19.98 18.192-34.163 1.095-5.5 2.222-10.23 2.504-10.508.278-.279.835 2.768 1.231 6.775 1.033 10.324 5.861 35.305 8.073 41.774 1.778 5.19 1.774 5.722-.041 11.072-1.054 3.092-3.319 7.408-5.037 9.596-6.369 8.104-9.478 18.602-8.26 27.868 1.297 9.85 6.2 28.337 7.415 27.948 1.763-.564 7.558-15.614 10.98-28.529l3.002-11.329-2.302-10.827c-1.27-5.955-2.633-11.917-3.03-13.253-.448-1.495-.264-2.417.477-2.417.66 0 1.2.664 1.2 1.475 0 2.47 9.242 22.932 13.892 30.761 2.407 4.053 6.1 9.628 8.209 12.394l3.836 5.019-2.219 6.563c-2.671 7.917-2.831 14.741-.449 19.346 2.887 5.583 11.381 17.983 12.32 17.983 1.406 0 2.581-7.454 2.546-16.129-.034-8.772-1.099-11.586-7.607-20.111-6.19-8.115-3.067-6.644 5.194 2.449 4.26 4.688 9.94 10.63 12.622 13.203 7.53 7.235 25.645 20.473 32.984 24.111 5.806 2.877 6.679 3.722 7.204 6.943.73 4.504 9.663 20.643 13.722 24.796 2.521 2.574 25.12 15.267 27.19 15.267 1.147 0-.568-5.68-2.922-9.677-5.948-10.097-15.653-18.024-27.61-22.57-4.429-1.684-8.6-5.17-8.6-7.183 0-2.07.971-1.844 10.349 2.435 11.888 5.419 31.335 12.455 35.266 12.765 1.815.14 6.448.567 10.292.946 8.129.8 28.143 2.07 32.699 2.07 1.722 0 3.704-.783 4.407-1.74.751-1.03 6.038-2.87 12.873-4.486 6.383-1.507 15.2-4.14 19.6-5.844 6.62-2.574 7.875-2.796 7.287-1.308-.39.992-.974 5.2-1.294 9.357-.522 6.72-.278 8.156 2.22 12.904 1.544 2.94 6.149 8.94 10.232 13.34l7.423 8 .782-13.6c.432-7.483.487-14.797.122-16.251-.904-3.604-5.544-8.922-10.522-12.063-2.264-1.433-4.1-2.956-4.076-3.395.024-.438 6.348-3.92 14.049-7.742 12.118-6.014 32.003-19.287 34.539-23.058 1.402-2.08.873.453-.745 3.583-.866 1.67-3.614 2.514-4.877 2.848-1.27.33-4.295 1.096-3.923 1.704.376.602 4.574 1.695 5.298 1.465.72-.23 5.649-1.707 10.95-3.283 12.045-3.576 24.824-9.93 29.45-14.644 5.367-5.47 15.325-22.643 13.937-24.034-.678-.679-19.791 2.121-22.925 3.353-1.67.66-1.357-.105 1.377-3.399 16.69-20.073 30.216-41.113 33.844-52.626l2.365-7.527.776 11.826c.928 14.157 1.961 18.039 7.488 28.115 3.93 7.159 12.014 17.58 13.642 17.583 1.155 0 .237-29.134-1.078-34.181-.943-3.631-2.682-5.913-8.191-10.748-3.844-3.377-8.126-7.937-9.513-10.132-2.477-3.927-2.49-4.104-.828-10.588 1.405-5.495 1.596-11.464 1.14-35.791-.299-16.052-.883-31.065-1.297-33.357-.591-3.283-.438-4.062.73-3.676 1.775.591 2.442 2.765 4.703 15.367 1.009 5.635 2.839 11.565 4.38 14.201 2.337 4 23.603 22.89 25.766 22.89 1.437 0-.375-10.128-3.37-18.844-4.557-13.273-8.849-19.037-19.252-25.844-2.957-1.937-6.748-5.008-8.425-6.831-1.676-1.82-3.652-3.311-4.382-3.311-.8 0-1.868-2.887-2.661-7.183-.727-3.951-2.696-11.45-4.372-16.66-1.677-5.218-2.776-9.486-2.439-9.486.334 0 3.896 3.569 7.917 7.93 8.706 9.45 15.892 14.296 24.911 16.81 3.66 1.02 7.5 2.213 8.532 2.648 3.454 1.46 2.074-2.279-3.641-9.85-12.119-16.063-16.62-19.072-26.738-17.875-7.45.883-12.121-2.143-14-9.072-2.139-7.885-5.513-13.888-14.045-24.995-17.043-22.19-34.929-37.68-62.174-53.857-11.562-6.863-8.368-6.991 13.892-.574 12.912 3.722 23.6 6.056 27.73 6.052 3.178 0 17.196-2.483 21.996-3.895 3.426-1.009 1.979-2.306-8.063-7.239-21.03-10.327-29.287-11.422-44.623-5.923-12.542 4.5-23.078 5.649-27.59 3.002-2.726-1.6-21.669-8.192-39.331-13.694-3.016-.94-1.413-1.054 8.062-.585 13.705.686 18.727-.723 30.303-8.487 6.887-4.626 7.642-6.32 2.685-6.052-1.586.084-7.071-.215-12.188-.668-5.113-.452-10.974-.504-13.019-.121-2.104.393-7.756 3.708-13.022 7.634-8.206 6.119-9.715 6.86-12.783 6.279-1.913-.362-3.965-1.009-4.557-1.437-1.934-1.402-13.273-2.007-19.603-1.043-3.409.515-10.55 1.68-15.875 2.588-12 2.045-15.363 2.041-9.774-.004 6.028-2.209 10.358-5.823 19.478-16.254C225.012 2.47 226.862-.33 224.81.031c-.445.076-4.181.532-8.303 1.008m-8.295 4.143c-7.395 2.89-12.22 6.15-15.736 10.622-2.998 3.816-6.644 10.133-6.644 11.514 0 1.113 5.475-3.166 13.99-10.933 4.438-4.048 9.76-8.688 11.826-10.306 4.362-3.422 3.558-3.631-3.436-.897m4.396 3.502c-5.652 4.09-20.713 17.058-21.21 18.261-.995 2.41 12.89-5.335 17.332-9.67 4.313-4.208 10.128-12.013 8.946-12.013-.188 0-2.47 1.54-5.068 3.422m56.817 8.64c-2.215 1.287-4.03 2.672-4.03 3.086s1.815.354 4.034-.132a305 305 0 0 1 12.094-2.188c5.913-.96 7.489-1.534 5.913-2.157-4.463-1.756-13.826-1.033-18.01 1.391M156.74 18.611c-5.415 3.166-10.23 7.253-11.52 9.764-1.231 2.4-2.928 12.365-2.108 12.365.29 0 3.079-3.75 6.199-8.334 3.12-4.58 7.137-9.895 8.932-11.808 4.01-4.282 3.52-4.933-1.503-1.99m3.663 3.047c-3.826 4.083-12.633 16.616-13.621 19.377-1.906 5.357 7.812-4.184 12.577-12.348 2.567-4.4 5.256-10.521 4.62-10.521-.164 0-1.774 1.572-3.576 3.492m118.723-.88c-6.935 1.297-12.904 2.65-13.262 3.012-.359.358.428 1.228 1.746 1.934 3.593 1.923 11.895.696 18.744-2.765 5.503-2.783 8.46-4.992 6.25-4.665-.476.07-6.542 1.187-13.478 2.484m-33.868 8.883c1.044.275 2.498.254 3.225-.038.73-.296-.129-.522-1.903-.497-1.774.02-2.368.26-1.322.535m-35.234 1.072c-8.922 1.161-20.181 4.156-27.412 7.29a2260 2260 0 0 1-15.256 6.546c-3.955 1.673-6.95 3.433-6.658 3.91 1.01 1.624 9.74.87 16.098-1.395 8.626-3.071 16.856-3.05 23.016.063 4.83 2.441 26.11 23.408 25.22 24.848-.66 1.065-9.31.049-19.568-2.299-10.157-2.33-17.228-5.624-27.134-12.65-6.066-4.303-7.93-5.044-14.4-5.736-9.266-.988-10.438-.522-29.472 11.722-10.977 7.064-17.328 12.104-25.346 20.122-5.885 5.881-10.15 10.88-9.478 11.102.671.223 4.498-.918 8.501-2.539 9.447-3.826 21.6-4.64 31.325-2.104 8.845 2.306 18.421 5.895 18.421 6.908 0 1.62-20.163 9.624-27.416 10.88-9.732 1.686-18.653.184-23.895-4.025l-6.185-4.974c-1.373-1.106-3.07-1.655-3.773-1.22-2.477 1.53-23.183 30.18-26.366 36.476-1.767 3.5-4.031 7.22-5.033 8.268-1.739 1.819-6.243 14.608-6.243 17.718 0 .817-1.527 6.212-3.392 11.983-1.986 6.139-3.7 14.201-4.132 19.426l-.737 8.932 4.939 4.897c2.713 2.696 7.468 6.338 10.564 8.098 10.198 5.794 19.036 18.031 21.676 30.01.57 2.595 1.374 8.223 1.788 12.511.647 6.713.515 7.792-.953 7.792-.94 0-7.026-5.2-13.53-11.555-13.385-13.085-15.611-16.94-17.315-29.976-.61-4.654-1.322-9.44-1.58-10.633-.584-2.702-4.67-7.207-5.867-6.47-1.889 1.17-1.225 19.242 1.008 27.458 1.204 4.435 3.367 13.384 4.8 19.889 4.839 21.913 7.618 28.504 21.413 50.768 7.753 12.522 11.21 14.477 25.937 14.679 8.4.118 10.316.515 14.539 2.995 5.37 3.158 19.252 18.041 16.988 18.215-7.868.602-23.176-3.35-29.127-7.52-2.504-1.753-7.117-5.642-10.25-8.64s-6.484-5.45-7.444-5.45c-3.235 0 26.25 29.704 33.033 33.273 2.07 1.088 6.623 4.202 10.118 6.922 3.882 3.015 6.81 4.587 7.527 4.038.644-.49 3.527-1.534 6.41-2.317 4.328-1.168 6.665-2.894 13.343-9.843 5.27-5.485 10.202-9.461 14.112-11.385 5.415-2.657 6.91-2.91 15.147-2.553 5.027.22 11.68.463 14.783.54 3.36.08 5.645.626 5.645 1.339 0 1.95-16.65 17.28-21.697 19.972-4.24 2.264-6.042 2.483-20.769 2.529-15.2.048-21.537 1.026-24.605 3.79-2.254 2.032 23.694 16.255 32.174 17.636 9.906 1.617 15.363 3.224 21.116 6.226 5.538 2.894 7.25 3.224 18.279 3.548 10.626.313 11.304.24 5.367-.606-9.148-1.297-14.992-4.323-24.442-12.664-7.496-6.62-9.266-9.729-4.71-8.282 1.12.355 6.946.073 12.946-.626 15.865-1.843 17.482-1.179 26.442 10.866 8.365 11.245 7.722 11.061 24.258 6.87 13.19-3.34 18-5.263 18-7.186 0-.8 4.354-5.732 9.676-10.96 5.322-5.232 9.677-10.056 9.677-10.724 0-.671.507-5.322 1.13-10.33 1.329-10.703 4.372-17.945 11.68-27.805 2.897-3.91 5.878-8.453 6.626-10.09.751-1.643 1.878-2.815 2.504-2.606.63.209 2.01 4.456 3.068 9.436 2.164 10.202 1.764 17.454-1.3 23.454-2.098 4.105-12.039 14.06-18.331 18.355-4.73 3.228-20.431 18.727-20.431 20.174 0 .591 5.2-.86 11.558-3.22 20.546-7.636 45.965-26.63 64.515-48.21 11.972-13.926 25.548-33.307 31.168-44.504 2.672-5.322 6.54-12.313 8.602-15.534 7.158-11.2 9.993-24.355 9.854-45.75l-.087-13.975-2.073 4.508c-1.14 2.48-2.807 8.716-3.704 13.857-1.92 11.012-7.061 24.01-11.489 29.054-3.235 3.687-32.66 19.485-33.927 18.216-.362-.362.115-1.972 1.057-3.583.94-1.603 3.02-6.79 4.62-11.52 6.504-19.235 14.097-28.574 30.98-38.104 8.119-4.578 10.15-6.88 12.15-13.76 1.482-5.103 1.482-7.322-.014-22.063-2.205-21.784-7.478-41.854-13.673-52.035-6.717-11.036-11.951-18.75-12.41-18.292-.227.226 1.6 5.924 4.066 12.661 4.007 10.974 4.487 13.322 4.591 22.466l.118 10.212-6.202 12.112c-6.11 11.944-12.598 20.681-15.35 20.681-2.037 0-3.06-10.226-2.291-22.87.695-11.484 1.934-14.897 10.386-28.674 6.268-10.216 6.49-11.297 4.07-19.955-3.778-13.495-5.016-15.99-13.218-26.608-8.79-11.378-17.38-19.13-31.86-28.745-9.653-6.41-32.982-18.828-33.81-17.996-1.161 1.158 1.267 4.163 7.2 8.921 8.31 6.665 13.037 12.533 17.89 22.192 3.651 7.276 3.964 8.64 4.312 19.123.442 13.42-.626 16.233-4.31 11.315a182 182 0 0 0-6.452-7.882c-5.433-6.278-12.302-16.49-14.817-22.031-1.54-3.391-2.056-7.016-2.073-14.54l-.024-10.017-4.557-5.408c-4.953-5.872-8.897-8.418-13.043-8.418-1.461 0-7.652-1.186-13.76-2.636-11.36-2.7-27.986-4.89-37.075-4.89-4.703 0-4.929.118-2.998 1.579 1.179.89 4.459 1.593 7.537 1.613 2.995.018 8.077.81 11.287 1.76 4.88 1.444 7.12 3.058 13.635 9.82 8.097 8.403 9.655 11.467 5.377 10.556a597 597 0 0 0-8.87-1.739c-8.91-1.697-16.257-5.937-21.283-12.292-2.334-2.957-6.243-6.536-8.685-7.955-2.438-1.423-5.2-3.242-6.136-4.038-.932-.8-1.899-1.381-2.15-1.294-.25.09-1.902.348-3.676.58m27.061 10.362c3.214 2.644 17.58 9.66 18.303 8.94.984-.988-9.948-9.357-13.517-10.348-6.793-1.885-8.26-1.454-4.782 1.408m92.594-.8c-10.434 3.214-7.283 4.22 16.345 5.218 7.391.313 15.099 1.05 17.13 1.645 6.007 1.75 5.009.417-1.203-1.607-3.141-1.026-6.293-2.323-6.999-2.88-1.982-1.565-12.257-4.059-16.452-3.99-2.073.035-6.038.762-8.82 1.618m-95.472 3.82c0 2.851 17.092 11.074 19.016 9.147.264-.261-3.906-2.633-9.27-5.27-5.356-2.636-9.746-4.382-9.746-3.878m91.158 3.186c4.567 4.01 33.527 7.903 41.976 5.642 4.532-1.214-7.774-4.664-16.977-4.765a284 284 0 0 1-16.936-.818c-4.856-.403-8.487-.431-8.063-.059m-143.568.65c-4.174.8-2.672 2.08 4.834 4.101 6.696 1.802 18.01 7.09 27.124 12.675l3.736 2.292-2.32-3.262c-3.479-4.884-11.367-11.826-16.293-14.338-4.16-2.121-10.748-2.688-17.081-1.467m186.803.737c0 .233.751.71 1.67 1.064.956.366 1.387.185 1.008-.424-.626-1.023-2.678-1.51-2.678-.64m-186.536 7.74c6.943 5.766 27.312 13.554 31.653 12.103 1.787-.59-14.08-9.554-20.828-11.763-2.995-.98-7.385-2.063-9.75-2.4l-4.299-.62zm114.943 7.432c-1.791 7.13 3.878 20.115 13.377 30.65l4.352 4.825-1.148-4.303c-2.33-8.765-12.626-31.94-14.783-33.273-.605-.372-1.415.574-1.798 2.101m6.01-1.294c0 .358 1.987 5.152 4.414 10.647 6.233 14.111 10.626 25.705 10.706 28.244.06 1.885.216 1.819 1.173-.508 3.405-8.296-4.261-28.678-13.913-36.991-1.312-1.127-2.38-1.754-2.38-1.392m-218.25 7.618c0 1.495-4.518 17.648-6.02 21.53-1.413 3.652 1.585.804 3.87-3.67 2.028-3.975 4.282-19.35 2.842-19.35-.382 0-.695.672-.695 1.493m-7.107 6.525A37.7 37.7 0 0 0 74.4 90.048l-.427 7.137 2.612-7.29c3.27-9.124 5.408-17.892 4.563-18.734-.355-.355-1.92 2.143-3.478 5.551m291.583.07c-3.068.845-7.447 1.19-10.484.831-3.544-.42-5.21-.226-5.21.605 0 .675 1.328 1.228 2.956 1.232 3.464.003 7.652 2.407 15.882 9.106 10.247 8.348 11.972 8.89 29.544 9.322 9.496.23 15.586-.025 15.586-.654 0-1.767-19.071-16.8-24.73-19.5-6.188-2.946-14.957-3.297-23.544-.939m3.655 1.774-2.685 1.13 2.685.87c1.478.48 5.461 1.183 8.852 1.565 4.126.467 9.809 2.453 17.2 6.007L410 93.443l-5.374-4.852c-7.784-7.027-16.775-11.312-23.558-11.228-3.009.035-6.678.577-8.16 1.196m1.586 8.386c8.463 7.326 12.258 8.759 22.237 8.4l8.688-.313-8.688-4.619c-5.687-3.026-11.023-4.98-15.447-5.655-3.722-.567-7.906-1.294-9.308-1.614-1.986-.453-1.44.379 2.518 3.801m-259.457 5.193c-2.574 1.006-4.626 2.306-4.557 2.898.077.671 7.166 1.078 18.853 1.078 10.306 0 18.403-.32 18-.71-.407-.386-4.178-1.714-8.383-2.956-9.127-2.685-17.53-2.797-23.913-.31m1.454 7.124-10.752 1.217 4.526 2.386c6.845 3.607 19.339 3.364 29.468-.57l7.606-2.957-4.135-.744c-5.565-1.002-13.791-.796-26.713.668m-75.26 27.843c-5.808 2.279-9.617 4.776-13.44 8.821-3.523 3.722-3.592 3.927-1.074 3.18a40 40 0 0 0 5.377-2.143c1.479-.741 6.8-2.626 11.826-4.188s10.832-3.777 12.901-4.922l3.764-2.087-8.063.039c-4.438.02-9.516.605-11.29 1.3m1.614 8.675c-5.618 1.962-12.15 4.48-14.515 5.6l-4.303 2.035 5.378.362c9.182.612 15.965-1.52 21.746-6.839 2.859-2.63 4.417-4.723 3.52-4.723-.887 0-6.209 1.607-11.826 3.565m332.215 1.242c.003 1.151-.946 5.482-2.104 9.62a817 817 0 0 0-5.27 20.429c-1.739 7.095-3.495 13.87-3.906 15.054-1.537 4.417 3.604-3.152 8.72-12.842 6.066-11.496 7.092-16.073 5.666-25.325-1.043-6.755-3.113-11.381-3.106-6.936m-6.191 6.045c-2.804 5.162-2.609 6.024.755 3.304 1.655-1.342 2.285-2.841 2.034-4.855-.354-2.838-.424-2.797-2.786 1.551m33.065-.696c0 .31 1.203 1.02 2.675 1.58 2.95 1.123 15.137 9.134 20.886 13.732 3.399 2.716 3.576 2.758 2.383.522-.71-1.336-1.788-2.421-2.393-2.421s-.783-.515-.396-1.138c.382-.626-1.93-3.77-5.148-6.991-5.705-5.704-6.004-5.85-11.93-5.85-3.34 0-6.077.253-6.077.566m-335.405 4.543c.132 15.127 4.1 26.713 11.885 34.706 7.54 7.74 20.334 15.45 20.334 12.254 0-.334-1.232-5.464-2.738-11.398-4.167-16.449-5.767-19.12-16.678-27.816-5.224-4.17-9.802-8.522-10.167-9.68-1.113-3.499-2.675-2.355-2.636 1.934m340.838 4.097c4.122 4.265 14.365 10.536 16.202 9.924 2.24-.748-15.566-13.697-18.887-13.74-.564-.01.647 1.712 2.685 3.816m-43.92.818c-2.887 3.123-5.054 16.755-3.986 25.106.702 5.51.921 5.94 1.815 3.576 1.433-3.792 5.85-21.266 6.567-25.99.738-4.849-1.273-6.076-4.396-2.692m-290.14 2.609c9.26 15.238 11.465 19.11 11.465 20.128 0 .672 2.174 4.313 4.835 8.094 5.217 7.412 5.902 6.772 3.276-3.085-2.751-10.344-6.601-16.755-12.932-21.53-5.565-4.206-7.718-5.374-6.643-3.607m-3.239 4.57c1.69 12.07 5.792 18.991 15.239 25.729 4.692 3.342 5.137 3.488 3.492 1.148-1.033-1.479-3.59-5.97-5.673-9.98-2.087-4.01-6.032-10.539-8.765-14.514l-4.974-7.221zm-40.08 19.44c-3.227 1.144-7.252 3.409-8.946 5.026-3.676 3.517-13.008 17.42-12.226 18.205.306.303 2.884-1.593 5.732-4.215 2.846-2.623 8.804-7.44 13.239-10.703 4.434-3.263 8.984-6.974 10.11-8.243 2.018-2.268 2.018-2.307 0-2.227-1.126.039-4.684 1.01-7.909 2.157m.355 9.357c-12.337 9.078-20.963 16.883-17.422 15.763 10.1-3.2 20.754-11.294 25.547-19.42 1.183-2.003 2.042-3.62 1.913-3.603-.125.021-4.643 3.287-10.038 7.26m379.569 3.036c1.224 8.66 5.356 15.826 12.643 21.917 6.86 5.728 8.487 6.222 6.087 1.843a3357 3357 0 0 1-4.02-7.34c-3.378-6.173-12.877-20.09-14.32-20.98-.773-.476-.894.98-.39 4.557m5.113-3.868c.34.88 3.22 5.784 6.4 10.89 3.172 5.11 7.374 11.885 9.325 15.054 3.541 5.74 3.551 5.746 2.94 1.885-.933-5.86-5.636-17.148-8.37-20.076-3.885-4.167-10.973-9.506-10.295-7.753m-354.504 35.2c1.03 10.281 4.608 17.001 13.544 25.433 4.139 3.899 8 7.092 8.58 7.092 1.375 0-13.171-28.01-18.006-34.675-2.038-2.807-3.965-5.106-4.278-5.106s-.244 3.266.156 7.26m6.887-2.811c1.297 1.986 6.024 10.539 10.511 19.002s8.286 15.234 8.442 15.05-.08-3.304-.522-6.94c-1.426-11.735-9.328-24.806-17.565-29.064l-3.217-1.666zm-37.064 5.06c-5.663 4.105-7.625 7.347-9.6 15.865-2.31 9.948-1.559 11.795 1.923 4.723 1.6-3.248 5.1-9.739 7.781-14.42 2.678-4.682 4.706-8.675 4.504-8.877-.198-.198-2.274 1.02-4.608 2.713m5.297 2.581c-5.454 7.624-15.183 28.233-13.923 29.496.619.619 7.05-6.199 10.323-10.95 4.035-5.854 9.847-23.113 7.784-23.113-.504 0-2.386 2.056-4.184 4.567m346.946-2.41c-5.46 2.841-12.438 9.147-16.243 14.678-3.026 4.4-11.037 22.9-10.254 23.683 1.036 1.037 16.097-16.487 20.035-23.318 2.556-4.435 6.083-9.9 7.836-12.143 1.753-2.247 3.005-4.257 2.79-4.47-.22-.211-2.094.495-4.164 1.57m5.305 2.925c-1.934 2.205-6.174 8.132-9.42 13.172-3.245 5.036-8.71 12.278-12.146 16.097-3.433 3.813-6.045 7.13-5.801 7.374s4.567-1.551 9.607-3.99c10.695-5.175 13.53-8.26 17.961-19.52 2.97-7.547 5.148-17.14 3.892-17.14-.313 0-2.156 1.802-4.093 4.007m16.215 46.233c-.017 7.311 1.53 12.08 7.42 22.87 2.552 4.67 3.94 6.347 4.19 5.06.512-2.633-4.939-22.991-7.401-27.638-3.913-7.391-4.191-7.409-4.209-.292m7.138 1.043c1.387 2.748 2.535 5.753 2.55 6.686.013.939 1.154 5.568 2.531 10.295l2.508 8.598.78-7.252c1.22-11.433-.968-17.52-7.73-21.46l-3.165-1.844zM49.523 286.771c-4.33 6.348-5.604 10.714-5.604 19.204 0 8.108 2.049 18.556 3.207 16.365.442-.835 1.1-5.21 1.461-9.718.362-4.508 1.138-9.461 1.725-11.005.981-2.588 3.433-19.176 2.908-19.698-.125-.128-1.791 2.06-3.697 4.852m4.16 11.2c-1.405 7.246-2.745 17.044-2.974 21.774-.4 8.185-.348 8.435 1.13 5.218 1.45-3.148 6.08-17.941 7.524-24.035.702-2.963-1.263-16.125-2.407-16.125-.397 0-1.868 5.923-3.273 13.168m250.435 23.896c-6.863 9.29-9.67 16.153-9.684 23.66l-.01 6.434 2.748-4.045c3.582-5.27 13.03-30.49 11.86-31.66-.243-.243-2.452 2.282-4.91 5.611m5.032 3.725a193 193 0 0 1-6.671 16.96c-2.077 4.494-3.52 8.432-3.204 8.745.981.984 11.44-9.879 13.006-13.51 1.561-3.62 1.906-15.527.553-18.974-.592-1.492-1.53.244-3.684 6.783M100.9 319.88c0 .522 1.332 1.523 2.957 2.226 1.624.7 7.454 3.235 12.95 5.635s10.309 4.365 10.692 4.365c1.224 0-6.574-7.583-9.934-9.666-3.44-2.129-16.665-4.163-16.665-2.56m265.948 1.666c-3.652.63-7.06 2.26-9.843 4.706-4.53 3.875-15.733 19.732-14.682 20.783.334.334 4-2.89 8.146-7.169 4.146-4.278 11.374-10.24 16.063-13.249 4.688-3.008 8.528-5.666 8.528-5.902 0-.557-1.412-.414-8.212.831m3.186 5.74c-5.426 3.251-11.715 7.964-13.979 10.469-2.26 2.504-6.407 6.852-9.217 9.666-2.804 2.81-4.94 5.113-4.734 5.113.198 0 2.98-.904 6.18-2.004 17.295-5.947 26.13-13.478 31.072-26.48.563-1.481.915-2.692.783-2.692-.133 0-4.679 2.668-10.105 5.924m-264.835.466c3.253 2.716 15.037 7.582 18.366 7.582 4.055 0-4.905-4.807-16.213-8.695l-5.913-2.035zm-22.094 8.104c-.396 2.658-.445 5.924-.104 7.26.772 3.074 7.078 13.078 7.791 12.365.79-.794-5.127-24.446-6.114-24.446-.466 0-1.173 2.17-1.573 4.825m5.381-2.136c1.075 2.814 2.188 7.183 3.76 14.783.706 3.398 1.68 6.18 2.167 6.18 1.322 0 .435-12.292-1.099-15.206a40 40 0 0 0-3.492-5.218c-1.687-2.1-1.98-2.219-1.336-.539m91.687 3.875c-6.271 1.45-11.638 4.633-16.855 9.996l-4.78 4.912 3.402-.974c1.868-.536 3.924-1.298 4.564-1.698.64-.393 6.584-2.062 13.203-3.708 6.623-1.641 13.976-3.84 16.341-4.883l4.303-1.896-3.764-.803c-7.391-1.58-12.424-1.871-16.414-.946m9.426 8.522c-3.547 1.133-8.99 2.59-12.097 3.241-3.103.647-5.642 1.628-5.642 2.178s-.814.998-1.808.998c-2.616 0-8.943 2.435-8.943 3.443 0 1.513 20.23.974 23.955-.647 4.271-1.853 14.817-11.304 12.598-11.29-.887.003-4.515.94-8.063 2.073m-71.026 17.468c-.487 3.68-.911 12.014-.935 18.518-.053 14.01 1.384 17.645 10.26 25.969l8.147 7.631c1.419 1.329 3.064 2.418 3.652 2.418 1.46 0 .163-15.27-1.84-21.642-1.701-5.412-8.487-17.301-13.635-23.878-2.675-3.423-3.197-5.023-3.043-9.336.27-7.663-1.566-7.437-2.602.32m89.836 6.876c-5.328.56-8.939 1.447-8.344 2.046.282.278 4.09 1.495 8.46 2.699s10.483 3.614 13.575 5.35c3.095 1.738 5.878 3.161 6.18 3.161.724 0-6.608-10.198-8.326-11.583-1.764-1.419-6.887-2.163-11.545-1.67m-89.151 11.64c-.073 10.12 2.605 17.046 8.922 23.06 4.313 4.1 4.921 3.642 1.895-1.43-1.099-1.843-3.568-8.434-5.488-14.643-5.11-16.511-5.26-16.71-5.329-6.988m5.29-2.445c0 5.812 9.381 28.786 11.757 28.786.435 0 .393-2.911-.094-6.47-.908-6.636-2.835-11.21-8.452-20.07-2.887-4.556-3.21-4.778-3.21-2.246m75.227.26c2.484 2.644 9.02 5.24 16.16 6.418l3.764.62-3.228-1.542c-6.588-3.144-18-8.15-18.584-8.15-.334 0 .518 1.194 1.888 2.655m8.094-1.044c9.85 4.581 16.79 7.225 17.388 6.63.925-.929-12.209-6.8-16.849-7.534l-3.763-.591zm81.176 7.176c0 .845.487 2.028 1.092 2.63.598.598 2.46 6.573 4.136 13.28 1.67 6.702 3.304 11.75 3.62 11.217.32-.536.898-4.358 1.287-8.497.57-6.108.338-8.216-1.224-11.197-2.254-4.3-8.911-9.85-8.911-7.433m-5.325 2.365a20.8 20.8 0 0 0-1.127 6.157c0 4.163 4.299 12.5 8.5 16.49 3.023 2.87 3.326 2.96 3.326.974 0-1.2-.967-4.995-2.15-8.431-1.182-3.437-2.167-7.02-2.184-7.965-.018-.94-1.204-3.618-2.637-5.948l-2.601-4.237zm-125.42 1.301c.359.94.65 2.54.65 3.558 0 2.943 5.806 8.112 13.862 12.348 4.08 2.143 7.75 3.896 8.153 3.896 1.398 0-7.096-9.169-14.191-15.318-7.235-6.275-9.653-7.555-8.474-4.484m16.21 7.85c6.371 6.53 8.587 8.303 5.864 4.696-3.072-4.07-8.09-9.102-10.133-10.156-1.182-.613.738 1.843 4.268 5.46" stroke-width="3.47826" fill="#3C3A36" fill-opacity="0.2" />
</svg>
